<?xml version="1.0" encoding="utf-8" standalone="no"?>
<!DOCTYPE svg PUBLIC "-//W3C//DTD SVG 1.1//EN"
  "http://www.w3.org/Graphics/SVG/1.1/DTD/svg11.dtd">
<!-- Created with matplotlib (http://matplotlib.org/) -->
<svg height="432pt" version="1.1" viewBox="0 0 576 432" width="576pt" xmlns="http://www.w3.org/2000/svg" xmlns:xlink="http://www.w3.org/1999/xlink">
 <defs>
  <style type="text/css">
*{stroke-linecap:butt;stroke-linejoin:round;}
  </style>
 </defs>
 <g id="figure_1">
  <g id="patch_1">
   <path d="
M0 432
L576 432
L576 0
L0 0
z
" style="fill:#ffffff;"/>
  </g>
  <g id="axes_1">
   <g id="patch_2">
    <path d="
M86.7038 356.04
L540.062 356.04
L540.062 34.56
L86.7038 34.56
z
" style="fill:#ffffff;"/>
   </g>
   <g id="line2d_1">
    <path clip-path="url(#pa3b2149d4d)" d="
M86.7038 356.04
L91.6058 355.202
L102.009 353.643
L116.471 351.707
L134.49 349.527
L155.54 347.207
L178.856 344.864
L203.429 342.619
L228.26 340.573
L252.533 338.795
L275.776 337.312
L297.795 336.128
L318.576 335.231
L338.196 334.605
L356.803 334.231
L361.666 334.054
L380.217 327.882
L398.613 321.523
L422.545 312.99
L429.626 310.334
L433.808 305.616
L437.833 300.74
L441.7 295.705
L442.585 294.332
L445.176 287.762
L447.699 280.753
L450.153 273.268
L452.539 265.271
L454.855 256.718
L457.102 247.566
L459.288 237.713
L461.415 227.095
L463.48 215.636
L465.483 203.254
L467.434 189.785
L469.321 175.189
L471.153 159.265
L472.928 141.863
L474.645 122.82
L476.311 101.829
L477.924 78.656
L479.478 53.0511
L480.98 24.5816
L482.163 -1
L482.163 -1" style="fill:none;stroke:#ff0000;stroke-linecap:square;stroke-width:2.5;"/>
   </g>
   <g id="matplotlib.axis_1">
    <g id="xtick_1">
     <g id="line2d_2">
      <defs>
       <path d="
M0 0
L0 -4" id="m93b0483c22" style="stroke:#000000;stroke-width:0.5;"/>
      </defs>
      <g>
       <use style="stroke:#000000;stroke-width:0.5;" x="86.70375" xlink:href="#m93b0483c22" y="356.04"/>
      </g>
     </g>
     <g id="line2d_3">
      <defs>
       <path d="
M0 0
L0 4" id="m741efc42ff" style="stroke:#000000;stroke-width:0.5;"/>
      </defs>
      <g>
       <use style="stroke:#000000;stroke-width:0.5;" x="86.70375" xlink:href="#m741efc42ff" y="34.56"/>
      </g>
     </g>
     <g id="text_1">
      <!-- 0 -->
      <defs>
       <path d="
M31.7812 66.4062
Q24.1719 66.4062 20.3281 58.9062
Q16.5 51.4219 16.5 36.375
Q16.5 21.3906 20.3281 13.8906
Q24.1719 6.39062 31.7812 6.39062
Q39.4531 6.39062 43.2812 13.8906
Q47.125 21.3906 47.125 36.375
Q47.125 51.4219 43.2812 58.9062
Q39.4531 66.4062 31.7812 66.4062
M31.7812 74.2188
Q44.0469 74.2188 50.5156 64.5156
Q56.9844 54.8281 56.9844 36.375
Q56.9844 17.9688 50.5156 8.26562
Q44.0469 -1.42188 31.7812 -1.42188
Q19.5312 -1.42188 13.0625 8.26562
Q6.59375 17.9688 6.59375 36.375
Q6.59375 54.8281 13.0625 64.5156
Q19.5312 74.2188 31.7812 74.2188" id="DejaVuSans-30"/>
      </defs>
      <g transform="translate(81.16078125 376.7565625)scale(0.22 -0.22)">
       <use xlink:href="#DejaVuSans-30"/>
      </g>
     </g>
    </g>
    <g id="xtick_2">
     <g id="line2d_4">
      <g>
       <use style="stroke:#000000;stroke-width:0.5;" x="151.469196429" xlink:href="#m93b0483c22" y="356.04"/>
      </g>
     </g>
     <g id="line2d_5">
      <g>
       <use style="stroke:#000000;stroke-width:0.5;" x="151.469196429" xlink:href="#m741efc42ff" y="34.56"/>
      </g>
     </g>
     <g id="text_2">
      <!-- 5 -->
      <defs>
       <path d="
M10.7969 72.9062
L49.5156 72.9062
L49.5156 64.5938
L19.8281 64.5938
L19.8281 46.7344
Q21.9688 47.4688 24.1094 47.8281
Q26.2656 48.1875 28.4219 48.1875
Q40.625 48.1875 47.75 41.5
Q54.8906 34.8125 54.8906 23.3906
Q54.8906 11.625 47.5625 5.09375
Q40.2344 -1.42188 26.9062 -1.42188
Q22.3125 -1.42188 17.5469 -0.640625
Q12.7969 0.140625 7.71875 1.70312
L7.71875 11.625
Q12.1094 9.23438 16.7969 8.0625
Q21.4844 6.89062 26.7031 6.89062
Q35.1562 6.89062 40.0781 11.3281
Q45.0156 15.7656 45.0156 23.3906
Q45.0156 31 40.0781 35.4375
Q35.1562 39.8906 26.7031 39.8906
Q22.75 39.8906 18.8125 39.0156
Q14.8906 38.1406 10.7969 36.2812
z
" id="DejaVuSans-35"/>
      </defs>
      <g transform="translate(146.280290179 376.7565625)scale(0.22 -0.22)">
       <use xlink:href="#DejaVuSans-35"/>
      </g>
     </g>
    </g>
    <g id="xtick_3">
     <g id="line2d_6">
      <g>
       <use style="stroke:#000000;stroke-width:0.5;" x="216.234642857" xlink:href="#m93b0483c22" y="356.04"/>
      </g>
     </g>
     <g id="line2d_7">
      <g>
       <use style="stroke:#000000;stroke-width:0.5;" x="216.234642857" xlink:href="#m741efc42ff" y="34.56"/>
      </g>
     </g>
     <g id="text_3">
      <!-- 10 -->
      <defs>
       <path d="
M12.4062 8.29688
L28.5156 8.29688
L28.5156 63.9219
L10.9844 60.4062
L10.9844 69.3906
L28.4219 72.9062
L38.2812 72.9062
L38.2812 8.29688
L54.3906 8.29688
L54.3906 0
L12.4062 0
z
" id="DejaVuSans-31"/>
      </defs>
      <g transform="translate(204.175892857 376.7565625)scale(0.22 -0.22)">
       <use xlink:href="#DejaVuSans-31"/>
       <use x="63.623046875" xlink:href="#DejaVuSans-30"/>
      </g>
     </g>
    </g>
    <g id="xtick_4">
     <g id="line2d_8">
      <g>
       <use style="stroke:#000000;stroke-width:0.5;" x="281.000089286" xlink:href="#m93b0483c22" y="356.04"/>
      </g>
     </g>
     <g id="line2d_9">
      <g>
       <use style="stroke:#000000;stroke-width:0.5;" x="281.000089286" xlink:href="#m741efc42ff" y="34.56"/>
      </g>
     </g>
     <g id="text_4">
      <!-- 15 -->
      <g transform="translate(269.171651786 376.7565625)scale(0.22 -0.22)">
       <use xlink:href="#DejaVuSans-31"/>
       <use x="63.623046875" xlink:href="#DejaVuSans-35"/>
      </g>
     </g>
    </g>
    <g id="xtick_5">
     <g id="line2d_10">
      <g>
       <use style="stroke:#000000;stroke-width:0.5;" x="345.765535714" xlink:href="#m93b0483c22" y="356.04"/>
      </g>
     </g>
     <g id="line2d_11">
      <g>
       <use style="stroke:#000000;stroke-width:0.5;" x="345.765535714" xlink:href="#m741efc42ff" y="34.56"/>
      </g>
     </g>
     <g id="text_5">
      <!-- 20 -->
      <defs>
       <path d="
M19.1875 8.29688
L53.6094 8.29688
L53.6094 0
L7.32812 0
L7.32812 8.29688
Q12.9375 14.1094 22.625 23.8906
Q32.3281 33.6875 34.8125 36.5312
Q39.5469 41.8438 41.4219 45.5312
Q43.3125 49.2188 43.3125 52.7812
Q43.3125 58.5938 39.2344 62.25
Q35.1562 65.9219 28.6094 65.9219
Q23.9688 65.9219 18.8125 64.3125
Q13.6719 62.7031 7.8125 59.4219
L7.8125 69.3906
Q13.7656 71.7812 18.9375 73
Q24.125 74.2188 28.4219 74.2188
Q39.75 74.2188 46.4844 68.5469
Q53.2188 62.8906 53.2188 53.4219
Q53.2188 48.9219 51.5312 44.8906
Q49.8594 40.875 45.4062 35.4062
Q44.1875 33.9844 37.6406 27.2188
Q31.1094 20.4531 19.1875 8.29688" id="DejaVuSans-32"/>
      </defs>
      <g transform="translate(333.304598214 376.7565625)scale(0.22 -0.22)">
       <use xlink:href="#DejaVuSans-32"/>
       <use x="63.623046875" xlink:href="#DejaVuSans-30"/>
      </g>
     </g>
    </g>
    <g id="xtick_6">
     <g id="line2d_12">
      <g>
       <use style="stroke:#000000;stroke-width:0.5;" x="410.530982143" xlink:href="#m93b0483c22" y="356.04"/>
      </g>
     </g>
     <g id="line2d_13">
      <g>
       <use style="stroke:#000000;stroke-width:0.5;" x="410.530982143" xlink:href="#m741efc42ff" y="34.56"/>
      </g>
     </g>
     <g id="text_6">
      <!-- 25 -->
      <g transform="translate(398.300357143 376.7565625)scale(0.22 -0.22)">
       <use xlink:href="#DejaVuSans-32"/>
       <use x="63.623046875" xlink:href="#DejaVuSans-35"/>
      </g>
     </g>
    </g>
    <g id="xtick_7">
     <g id="line2d_14">
      <g>
       <use style="stroke:#000000;stroke-width:0.5;" x="475.296428571" xlink:href="#m93b0483c22" y="356.04"/>
      </g>
     </g>
     <g id="line2d_15">
      <g>
       <use style="stroke:#000000;stroke-width:0.5;" x="475.296428571" xlink:href="#m741efc42ff" y="34.56"/>
      </g>
     </g>
     <g id="text_7">
      <!-- 30 -->
      <defs>
       <path d="
M40.5781 39.3125
Q47.6562 37.7969 51.625 33
Q55.6094 28.2188 55.6094 21.1875
Q55.6094 10.4062 48.1875 4.48438
Q40.7656 -1.42188 27.0938 -1.42188
Q22.5156 -1.42188 17.6562 -0.515625
Q12.7969 0.390625 7.625 2.20312
L7.625 11.7188
Q11.7188 9.32812 16.5938 8.10938
Q21.4844 6.89062 26.8125 6.89062
Q36.0781 6.89062 40.9375 10.5469
Q45.7969 14.2031 45.7969 21.1875
Q45.7969 27.6406 41.2812 31.2656
Q36.7656 34.9062 28.7188 34.9062
L20.2188 34.9062
L20.2188 43.0156
L29.1094 43.0156
Q36.375 43.0156 40.2344 45.9219
Q44.0938 48.8281 44.0938 54.2969
Q44.0938 59.9062 40.1094 62.9062
Q36.1406 65.9219 28.7188 65.9219
Q24.6562 65.9219 20.0156 65.0312
Q15.375 64.1562 9.8125 62.3125
L9.8125 71.0938
Q15.4375 72.6562 20.3438 73.4375
Q25.25 74.2188 29.5938 74.2188
Q40.8281 74.2188 47.3594 69.1094
Q53.9062 64.0156 53.9062 55.3281
Q53.9062 49.2656 50.4375 45.0938
Q46.9688 40.9219 40.5781 39.3125" id="DejaVuSans-33"/>
      </defs>
      <g transform="translate(462.868147321 376.7565625)scale(0.22 -0.22)">
       <use xlink:href="#DejaVuSans-33"/>
       <use x="63.623046875" xlink:href="#DejaVuSans-30"/>
      </g>
     </g>
    </g>
    <g id="xtick_8">
     <g id="line2d_16">
      <g>
       <use style="stroke:#000000;stroke-width:0.5;" x="540.061875" xlink:href="#m93b0483c22" y="356.04"/>
      </g>
     </g>
     <g id="line2d_17">
      <g>
       <use style="stroke:#000000;stroke-width:0.5;" x="540.061875" xlink:href="#m741efc42ff" y="34.56"/>
      </g>
     </g>
     <g id="text_8">
      <!-- 35 -->
      <g transform="translate(527.86390625 376.7565625)scale(0.22 -0.22)">
       <use xlink:href="#DejaVuSans-33"/>
       <use x="63.623046875" xlink:href="#DejaVuSans-35"/>
      </g>
     </g>
    </g>
    <g id="text_9">
     <!-- Depth (cm) -->
     <defs>
      <path d="
M8.01562 75.875
L15.8281 75.875
Q23.1406 64.3594 26.7812 53.3125
Q30.4219 42.2812 30.4219 31.3906
Q30.4219 20.4531 26.7812 9.375
Q23.1406 -1.70312 15.8281 -13.1875
L8.01562 -13.1875
Q14.5 -2 17.7031 9.0625
Q20.9062 20.125 20.9062 31.3906
Q20.9062 42.6719 17.7031 53.6562
Q14.5 64.6562 8.01562 75.875" id="DejaVuSans-29"/>
      <path d="
M52 44.1875
Q55.375 50.25 60.0625 53.125
Q64.75 56 71.0938 56
Q79.6406 56 84.2812 50.0156
Q88.9219 44.0469 88.9219 33.0156
L88.9219 0
L79.8906 0
L79.8906 32.7188
Q79.8906 40.5781 77.0938 44.375
Q74.3125 48.1875 68.6094 48.1875
Q61.625 48.1875 57.5625 43.5469
Q53.5156 38.9219 53.5156 30.9062
L53.5156 0
L44.4844 0
L44.4844 32.7188
Q44.4844 40.625 41.7031 44.4062
Q38.9219 48.1875 33.1094 48.1875
Q26.2188 48.1875 22.1562 43.5312
Q18.1094 38.875 18.1094 30.9062
L18.1094 0
L9.07812 0
L9.07812 54.6875
L18.1094 54.6875
L18.1094 46.1875
Q21.1875 51.2188 25.4844 53.6094
Q29.7812 56 35.6875 56
Q41.6562 56 45.8281 52.9688
Q50 49.9531 52 44.1875" id="DejaVuSans-6d"/>
      <path d="
M48.7812 52.5938
L48.7812 44.1875
Q44.9688 46.2969 41.1406 47.3438
Q37.3125 48.3906 33.4062 48.3906
Q24.6562 48.3906 19.8125 42.8438
Q14.9844 37.3125 14.9844 27.2969
Q14.9844 17.2812 19.8125 11.7344
Q24.6562 6.20312 33.4062 6.20312
Q37.3125 6.20312 41.1406 7.25
Q44.9688 8.29688 48.7812 10.4062
L48.7812 2.09375
Q45.0156 0.34375 40.9844 -0.53125
Q36.9688 -1.42188 32.4219 -1.42188
Q20.0625 -1.42188 12.7812 6.34375
Q5.51562 14.1094 5.51562 27.2969
Q5.51562 40.6719 12.8594 48.3281
Q20.2188 56 33.0156 56
Q37.1562 56 41.1094 55.1406
Q45.0625 54.2969 48.7812 52.5938" id="DejaVuSans-63"/>
      <path d="
M19.6719 64.7969
L19.6719 8.10938
L31.5938 8.10938
Q46.6875 8.10938 53.6875 14.9375
Q60.6875 21.7812 60.6875 36.5312
Q60.6875 51.1719 53.6875 57.9844
Q46.6875 64.7969 31.5938 64.7969
z

M9.8125 72.9062
L30.0781 72.9062
Q51.2656 72.9062 61.1719 64.0938
Q71.0938 55.2812 71.0938 36.5312
Q71.0938 17.6719 61.125 8.82812
Q51.1719 0 30.0781 0
L9.8125 0
z
" id="DejaVuSans-44"/>
      <path id="DejaVuSans-20"/>
      <path d="
M54.8906 33.0156
L54.8906 0
L45.9062 0
L45.9062 32.7188
Q45.9062 40.4844 42.875 44.3281
Q39.8438 48.1875 33.7969 48.1875
Q26.5156 48.1875 22.3125 43.5469
Q18.1094 38.9219 18.1094 30.9062
L18.1094 0
L9.07812 0
L9.07812 75.9844
L18.1094 75.9844
L18.1094 46.1875
Q21.3438 51.125 25.7031 53.5625
Q30.0781 56 35.7969 56
Q45.2188 56 50.0469 50.1719
Q54.8906 44.3438 54.8906 33.0156" id="DejaVuSans-68"/>
      <path d="
M18.3125 70.2188
L18.3125 54.6875
L36.8125 54.6875
L36.8125 47.7031
L18.3125 47.7031
L18.3125 18.0156
Q18.3125 11.3281 20.1406 9.42188
Q21.9688 7.51562 27.5938 7.51562
L36.8125 7.51562
L36.8125 0
L27.5938 0
Q17.1875 0 13.2344 3.875
Q9.28125 7.76562 9.28125 18.0156
L9.28125 47.7031
L2.6875 47.7031
L2.6875 54.6875
L9.28125 54.6875
L9.28125 70.2188
z
" id="DejaVuSans-74"/>
      <path d="
M31 75.875
Q24.4688 64.6562 21.2812 53.6562
Q18.1094 42.6719 18.1094 31.3906
Q18.1094 20.125 21.3125 9.0625
Q24.5156 -2 31 -13.1875
L23.1875 -13.1875
Q15.875 -1.70312 12.2344 9.375
Q8.59375 20.4531 8.59375 31.3906
Q8.59375 42.2812 12.2031 53.3125
Q15.8281 64.3594 23.1875 75.875
z
" id="DejaVuSans-28"/>
      <path d="
M56.2031 29.5938
L56.2031 25.2031
L14.8906 25.2031
Q15.4844 15.9219 20.4844 11.0625
Q25.4844 6.20312 34.4219 6.20312
Q39.5938 6.20312 44.4531 7.46875
Q49.3125 8.73438 54.1094 11.2812
L54.1094 2.78125
Q49.2656 0.734375 44.1875 -0.34375
Q39.1094 -1.42188 33.8906 -1.42188
Q20.7969 -1.42188 13.1562 6.1875
Q5.51562 13.8125 5.51562 26.8125
Q5.51562 40.2344 12.7656 48.1094
Q20.0156 56 32.3281 56
Q43.3594 56 49.7812 48.8906
Q56.2031 41.7969 56.2031 29.5938
M47.2188 32.2344
Q47.125 39.5938 43.0938 43.9844
Q39.0625 48.3906 32.4219 48.3906
Q24.9062 48.3906 20.3906 44.1406
Q15.875 39.8906 15.1875 32.1719
z
" id="DejaVuSans-65"/>
      <path d="
M18.1094 8.20312
L18.1094 -20.7969
L9.07812 -20.7969
L9.07812 54.6875
L18.1094 54.6875
L18.1094 46.3906
Q20.9531 51.2656 25.2656 53.625
Q29.5938 56 35.5938 56
Q45.5625 56 51.7812 48.0938
Q58.0156 40.1875 58.0156 27.2969
Q58.0156 14.4062 51.7812 6.48438
Q45.5625 -1.42188 35.5938 -1.42188
Q29.5938 -1.42188 25.2656 0.953125
Q20.9531 3.32812 18.1094 8.20312
M48.6875 27.2969
Q48.6875 37.2031 44.6094 42.8438
Q40.5312 48.4844 33.4062 48.4844
Q26.2656 48.4844 22.1875 42.8438
Q18.1094 37.2031 18.1094 27.2969
Q18.1094 17.3906 22.1875 11.75
Q26.2656 6.10938 33.4062 6.10938
Q40.5312 6.10938 44.6094 11.75
Q48.6875 17.3906 48.6875 27.2969" id="DejaVuSans-70"/>
     </defs>
     <g transform="translate(251.98046875 403.0484375)scale(0.22 -0.22)">
      <use xlink:href="#DejaVuSans-44"/>
      <use x="77.001953125" xlink:href="#DejaVuSans-65"/>
      <use x="138.525390625" xlink:href="#DejaVuSans-70"/>
      <use x="202.001953125" xlink:href="#DejaVuSans-74"/>
      <use x="241.2109375" xlink:href="#DejaVuSans-68"/>
      <use x="304.58984375" xlink:href="#DejaVuSans-20"/>
      <use x="336.376953125" xlink:href="#DejaVuSans-28"/>
      <use x="375.390625" xlink:href="#DejaVuSans-63"/>
      <use x="430.37109375" xlink:href="#DejaVuSans-6d"/>
      <use x="527.783203125" xlink:href="#DejaVuSans-29"/>
     </g>
    </g>
   </g>
   <g id="matplotlib.axis_2">
    <g id="ytick_1">
     <g id="line2d_18">
      <defs>
       <path d="
M0 0
L4 0" id="m728421d6d4" style="stroke:#000000;stroke-width:0.5;"/>
      </defs>
      <g>
       <use style="stroke:#000000;stroke-width:0.5;" x="86.70375" xlink:href="#m728421d6d4" y="356.04"/>
      </g>
     </g>
     <g id="line2d_19">
      <defs>
       <path d="
M0 0
L-4 0" id="mcb0005524f" style="stroke:#000000;stroke-width:0.5;"/>
      </defs>
      <g>
       <use style="stroke:#000000;stroke-width:0.5;" x="540.061875" xlink:href="#mcb0005524f" y="356.04"/>
      </g>
     </g>
     <g id="text_10">
      <!-- 0.0 -->
      <defs>
       <path d="
M10.6875 12.4062
L21 12.4062
L21 0
L10.6875 0
z
" id="DejaVuSans-2e"/>
      </defs>
      <g transform="translate(50.6284375 362.110625)scale(0.22 -0.22)">
       <use xlink:href="#DejaVuSans-30"/>
       <use x="63.623046875" xlink:href="#DejaVuSans-2e"/>
       <use x="95.41015625" xlink:href="#DejaVuSans-30"/>
      </g>
     </g>
    </g>
    <g id="ytick_2">
     <g id="line2d_20">
      <g>
       <use style="stroke:#000000;stroke-width:0.5;" x="86.70375" xlink:href="#m728421d6d4" y="315.855"/>
      </g>
     </g>
     <g id="line2d_21">
      <g>
       <use style="stroke:#000000;stroke-width:0.5;" x="540.061875" xlink:href="#mcb0005524f" y="315.855"/>
      </g>
     </g>
     <g id="text_11">
      <!-- 0.5 -->
      <g transform="translate(51.0890625 321.925625)scale(0.22 -0.22)">
       <use xlink:href="#DejaVuSans-30"/>
       <use x="63.623046875" xlink:href="#DejaVuSans-2e"/>
       <use x="95.41015625" xlink:href="#DejaVuSans-35"/>
      </g>
     </g>
    </g>
    <g id="ytick_3">
     <g id="line2d_22">
      <g>
       <use style="stroke:#000000;stroke-width:0.5;" x="86.70375" xlink:href="#m728421d6d4" y="275.67"/>
      </g>
     </g>
     <g id="line2d_23">
      <g>
       <use style="stroke:#000000;stroke-width:0.5;" x="540.061875" xlink:href="#mcb0005524f" y="275.67"/>
      </g>
     </g>
     <g id="text_12">
      <!-- 1.0 -->
      <g transform="translate(51.594375 281.740625)scale(0.22 -0.22)">
       <use xlink:href="#DejaVuSans-31"/>
       <use x="63.623046875" xlink:href="#DejaVuSans-2e"/>
       <use x="95.41015625" xlink:href="#DejaVuSans-30"/>
      </g>
     </g>
    </g>
    <g id="ytick_4">
     <g id="line2d_24">
      <g>
       <use style="stroke:#000000;stroke-width:0.5;" x="86.70375" xlink:href="#m728421d6d4" y="235.485"/>
      </g>
     </g>
     <g id="line2d_25">
      <g>
       <use style="stroke:#000000;stroke-width:0.5;" x="540.061875" xlink:href="#mcb0005524f" y="235.485"/>
      </g>
     </g>
     <g id="text_13">
      <!-- 1.5 -->
      <g transform="translate(52.055 241.555625)scale(0.22 -0.22)">
       <use xlink:href="#DejaVuSans-31"/>
       <use x="63.623046875" xlink:href="#DejaVuSans-2e"/>
       <use x="95.41015625" xlink:href="#DejaVuSans-35"/>
      </g>
     </g>
    </g>
    <g id="ytick_5">
     <g id="line2d_26">
      <g>
       <use style="stroke:#000000;stroke-width:0.5;" x="86.70375" xlink:href="#m728421d6d4" y="195.3"/>
      </g>
     </g>
     <g id="line2d_27">
      <g>
       <use style="stroke:#000000;stroke-width:0.5;" x="540.061875" xlink:href="#mcb0005524f" y="195.3"/>
      </g>
     </g>
     <g id="text_14">
      <!-- 2.0 -->
      <g transform="translate(50.79 201.370625)scale(0.22 -0.22)">
       <use xlink:href="#DejaVuSans-32"/>
       <use x="63.623046875" xlink:href="#DejaVuSans-2e"/>
       <use x="95.41015625" xlink:href="#DejaVuSans-30"/>
      </g>
     </g>
    </g>
    <g id="ytick_6">
     <g id="line2d_28">
      <g>
       <use style="stroke:#000000;stroke-width:0.5;" x="86.70375" xlink:href="#m728421d6d4" y="155.115"/>
      </g>
     </g>
     <g id="line2d_29">
      <g>
       <use style="stroke:#000000;stroke-width:0.5;" x="540.061875" xlink:href="#mcb0005524f" y="155.115"/>
      </g>
     </g>
     <g id="text_15">
      <!-- 2.5 -->
      <g transform="translate(51.250625 161.185625)scale(0.22 -0.22)">
       <use xlink:href="#DejaVuSans-32"/>
       <use x="63.623046875" xlink:href="#DejaVuSans-2e"/>
       <use x="95.41015625" xlink:href="#DejaVuSans-35"/>
      </g>
     </g>
    </g>
    <g id="ytick_7">
     <g id="line2d_30">
      <g>
       <use style="stroke:#000000;stroke-width:0.5;" x="86.70375" xlink:href="#m728421d6d4" y="114.93"/>
      </g>
     </g>
     <g id="line2d_31">
      <g>
       <use style="stroke:#000000;stroke-width:0.5;" x="540.061875" xlink:href="#mcb0005524f" y="114.93"/>
      </g>
     </g>
     <g id="text_16">
      <!-- 3.0 -->
      <g transform="translate(50.8553125 121.000625)scale(0.22 -0.22)">
       <use xlink:href="#DejaVuSans-33"/>
       <use x="63.623046875" xlink:href="#DejaVuSans-2e"/>
       <use x="95.41015625" xlink:href="#DejaVuSans-30"/>
      </g>
     </g>
    </g>
    <g id="ytick_8">
     <g id="line2d_32">
      <g>
       <use style="stroke:#000000;stroke-width:0.5;" x="86.70375" xlink:href="#m728421d6d4" y="74.745"/>
      </g>
     </g>
     <g id="line2d_33">
      <g>
       <use style="stroke:#000000;stroke-width:0.5;" x="540.061875" xlink:href="#mcb0005524f" y="74.745"/>
      </g>
     </g>
     <g id="text_17">
      <!-- 3.5 -->
      <g transform="translate(51.3159375 80.815625)scale(0.22 -0.22)">
       <use xlink:href="#DejaVuSans-33"/>
       <use x="63.623046875" xlink:href="#DejaVuSans-2e"/>
       <use x="95.41015625" xlink:href="#DejaVuSans-35"/>
      </g>
     </g>
    </g>
    <g id="ytick_9">
     <g id="line2d_34">
      <g>
       <use style="stroke:#000000;stroke-width:0.5;" x="86.70375" xlink:href="#m728421d6d4" y="34.56"/>
      </g>
     </g>
     <g id="line2d_35">
      <g>
       <use style="stroke:#000000;stroke-width:0.5;" x="540.061875" xlink:href="#mcb0005524f" y="34.56"/>
      </g>
     </g>
     <g id="text_18">
      <!-- 4.0 -->
      <defs>
       <path d="
M37.7969 64.3125
L12.8906 25.3906
L37.7969 25.3906
z

M35.2031 72.9062
L47.6094 72.9062
L47.6094 25.3906
L58.0156 25.3906
L58.0156 17.1875
L47.6094 17.1875
L47.6094 0
L37.7969 0
L37.7969 17.1875
L4.89062 17.1875
L4.89062 26.7031
z
" id="DejaVuSans-34"/>
      </defs>
      <g transform="translate(50.25375 40.630625)scale(0.22 -0.22)">
       <use xlink:href="#DejaVuSans-34"/>
       <use x="63.623046875" xlink:href="#DejaVuSans-2e"/>
       <use x="95.41015625" xlink:href="#DejaVuSans-30"/>
      </g>
     </g>
    </g>
    <g id="text_19">
     <!-- Pressure (atm) -->
     <defs>
      <path d="
M8.5 21.5781
L8.5 54.6875
L17.4844 54.6875
L17.4844 21.9219
Q17.4844 14.1562 20.5 10.2656
Q23.5312 6.39062 29.5938 6.39062
Q36.8594 6.39062 41.0781 11.0312
Q45.3125 15.6719 45.3125 23.6875
L45.3125 54.6875
L54.2969 54.6875
L54.2969 0
L45.3125 0
L45.3125 8.40625
Q42.0469 3.42188 37.7188 1
Q33.4062 -1.42188 27.6875 -1.42188
Q18.2656 -1.42188 13.375 4.4375
Q8.5 10.2969 8.5 21.5781
M31.1094 56
z
" id="DejaVuSans-75"/>
      <path d="
M19.6719 64.7969
L19.6719 37.4062
L32.0781 37.4062
Q38.9688 37.4062 42.7188 40.9688
Q46.4844 44.5312 46.4844 51.125
Q46.4844 57.6719 42.7188 61.2344
Q38.9688 64.7969 32.0781 64.7969
z

M9.8125 72.9062
L32.0781 72.9062
Q44.3438 72.9062 50.6094 67.3594
Q56.8906 61.8125 56.8906 51.125
Q56.8906 40.3281 50.6094 34.8125
Q44.3438 29.2969 32.0781 29.2969
L19.6719 29.2969
L19.6719 0
L9.8125 0
z
" id="DejaVuSans-50"/>
      <path d="
M34.2812 27.4844
Q23.3906 27.4844 19.1875 25
Q14.9844 22.5156 14.9844 16.5
Q14.9844 11.7188 18.1406 8.90625
Q21.2969 6.10938 26.7031 6.10938
Q34.1875 6.10938 38.7031 11.4062
Q43.2188 16.7031 43.2188 25.4844
L43.2188 27.4844
z

M52.2031 31.2031
L52.2031 0
L43.2188 0
L43.2188 8.29688
Q40.1406 3.32812 35.5469 0.953125
Q30.9531 -1.42188 24.3125 -1.42188
Q15.9219 -1.42188 10.9531 3.29688
Q6 8.01562 6 15.9219
Q6 25.1406 12.1719 29.8281
Q18.3594 34.5156 30.6094 34.5156
L43.2188 34.5156
L43.2188 35.4062
Q43.2188 41.6094 39.1406 45
Q35.0625 48.3906 27.6875 48.3906
Q23 48.3906 18.5469 47.2656
Q14.1094 46.1406 10.0156 43.8906
L10.0156 52.2031
Q14.9375 54.1094 19.5781 55.0469
Q24.2188 56 28.6094 56
Q40.4844 56 46.3438 49.8438
Q52.2031 43.7031 52.2031 31.2031" id="DejaVuSans-61"/>
      <path d="
M44.2812 53.0781
L44.2812 44.5781
Q40.4844 46.5312 36.375 47.5
Q32.2812 48.4844 27.875 48.4844
Q21.1875 48.4844 17.8438 46.4375
Q14.5 44.3906 14.5 40.2812
Q14.5 37.1562 16.8906 35.375
Q19.2812 33.5938 26.5156 31.9844
L29.5938 31.2969
Q39.1562 29.25 43.1875 25.5156
Q47.2188 21.7812 47.2188 15.0938
Q47.2188 7.46875 41.1875 3.01562
Q35.1562 -1.42188 24.6094 -1.42188
Q20.2188 -1.42188 15.4531 -0.5625
Q10.6875 0.296875 5.42188 2
L5.42188 11.2812
Q10.4062 8.6875 15.2344 7.39062
Q20.0625 6.10938 24.8125 6.10938
Q31.1562 6.10938 34.5625 8.28125
Q37.9844 10.4531 37.9844 14.4062
Q37.9844 18.0625 35.5156 20.0156
Q33.0625 21.9688 24.7031 23.7812
L21.5781 24.5156
Q13.2344 26.2656 9.51562 29.9062
Q5.8125 33.5469 5.8125 39.8906
Q5.8125 47.6094 11.2812 51.7969
Q16.75 56 26.8125 56
Q31.7812 56 36.1719 55.2656
Q40.5781 54.5469 44.2812 53.0781" id="DejaVuSans-73"/>
      <path d="
M41.1094 46.2969
Q39.5938 47.1719 37.8125 47.5781
Q36.0312 48 33.8906 48
Q26.2656 48 22.1875 43.0469
Q18.1094 38.0938 18.1094 28.8125
L18.1094 0
L9.07812 0
L9.07812 54.6875
L18.1094 54.6875
L18.1094 46.1875
Q20.9531 51.1719 25.4844 53.5781
Q30.0312 56 36.5312 56
Q37.4531 56 38.5781 55.875
Q39.7031 55.7656 41.0625 55.5156
z
" id="DejaVuSans-72"/>
     </defs>
     <g transform="translate(40.6784375 275.16)rotate(-90.0)scale(0.22 -0.22)">
      <use xlink:href="#DejaVuSans-50"/>
      <use x="58.552734375" xlink:href="#DejaVuSans-72"/>
      <use x="97.416015625" xlink:href="#DejaVuSans-65"/>
      <use x="158.939453125" xlink:href="#DejaVuSans-73"/>
      <use x="211.0390625" xlink:href="#DejaVuSans-73"/>
      <use x="263.138671875" xlink:href="#DejaVuSans-75"/>
      <use x="326.517578125" xlink:href="#DejaVuSans-72"/>
      <use x="365.380859375" xlink:href="#DejaVuSans-65"/>
      <use x="426.904296875" xlink:href="#DejaVuSans-20"/>
      <use x="458.69140625" xlink:href="#DejaVuSans-28"/>
      <use x="497.705078125" xlink:href="#DejaVuSans-61"/>
      <use x="558.984375" xlink:href="#DejaVuSans-74"/>
      <use x="598.193359375" xlink:href="#DejaVuSans-6d"/>
      <use x="695.60546875" xlink:href="#DejaVuSans-29"/>
     </g>
    </g>
   </g>
   <g id="patch_3">
    <path d="
M86.7038 34.56
L540.062 34.56" style="fill:none;stroke:#000000;"/>
   </g>
   <g id="patch_4">
    <path d="
M540.062 356.04
L540.062 34.56" style="fill:none;stroke:#000000;"/>
   </g>
   <g id="patch_5">
    <path d="
M86.7038 356.04
L540.062 356.04" style="fill:none;stroke:#000000;"/>
   </g>
   <g id="patch_6">
    <path d="
M86.7038 356.04
L86.7038 34.56" style="fill:none;stroke:#000000;"/>
   </g>
   <g id="line2d_36">
    <path clip-path="url(#pa3b2149d4d)" d="
M86.7038 356.04
L91.6058 355.202
L102.009 353.643
L116.457 351.709
L134.447 349.532
L155.412 347.224
L178.532 344.904
L202.773 342.696
L227.109 340.701
L250.802 338.98
L273.422 337.558
L294.812 336.434
L314.986 335.594
L334.055 335.02
L352.169 334.695
L361.124 334.48
L382.449 327.528
L408.61 318.741
L428.83 311.801
L433.164 307.08
L437.325 302.216
L441.327 297.199
L441.613 296.65
L444.237 290.212
L446.781 283.378
L449.255 276.089
L451.659 268.309
L453.992 260.002
L456.265 251.083
L458.475 241.497
L460.622 231.185
L462.705 220.08
L464.733 208.051
L466.704 195.002
L468.617 180.831
L470.469 165.427
L472.268 148.579
L474.011 130.138
L475.701 109.835
L477.334 87.4879
L478.912 62.7961
L480.431 35.4632
L481.893 5.1064
L482.163 -1
L482.163 -1" style="fill:none;stroke:#008000;stroke-linecap:square;stroke-width:2.5;"/>
   </g>
   <g id="line2d_37">
    <path clip-path="url(#pa3b2149d4d)" d="
M86.7038 356.04
L91.6058 355.202
L102.009 353.643
L116.456 351.71
L134.403 349.539
L155.255 347.244
L178.125 344.953
L201.951 342.79
L225.735 340.853
L248.766 339.199
L270.678 337.845
L291.367 336.788
L310.884 336.01
L329.341 335.496
L346.91 335.227
L360.486 334.997
L389.395 325.824
L416.506 317.268
L427.689 313.745
L432.227 309.024
L436.6 304.154
L440.236 299.806
L442.901 293.562
L445.485 286.938
L447.997 279.881
L450.436 272.359
L452.813 264.303
L455.115 255.707
L457.361 246.448
L459.54 236.511
L461.661 225.791
L463.72 214.218
L465.717 201.72
L467.656 188.152
L469.544 173.349
L471.375 157.2
L473.143 139.609
L474.856 120.307
L476.518 99.0247
L478.124 75.5555
L479.673 49.5876
L481.165 20.7937
L482.163 -1
L482.163 -1" style="fill:none;stroke:#0000ff;stroke-linecap:square;stroke-width:2.5;"/>
   </g>
   <g id="line2d_38">
    <path clip-path="url(#pa3b2149d4d)" d="
M86.7038 356.04
L91.6058 355.202
L102.008 353.643
L116.441 351.712
L134.344 349.547
L155.055 347.27
L177.632 345.014
L200.972 342.904
L224.093 341.037
L246.35 339.46
L267.455 338.185
L287.355 337.203
L306.115 336.498
L323.882 336.051
L340.827 335.845
L357.139 335.868
L359.269 335.777
L402.779 322.666
L415.027 319.235
L424.227 316.88
L426.05 316.329
L430.907 311.583
L435.62 306.666
L438.671 303.224
L441.386 297.18
L444.016 290.776
L446.572 283.963
L449.051 276.716
L451.463 268.973
L453.805 260.699
L456.085 251.819
L458.301 242.287
L460.458 232.011
L462.552 220.934
L464.588 208.952
L466.56 196.008
L468.475 181.939
L470.338 166.577
L472.138 149.865
L473.882 131.573
L475.571 111.488
L477.209 89.3076
L477.745 81.3766
L477.745 81.3766" style="fill:none;stroke:#000000;stroke-linecap:square;stroke-width:2.5;"/>
   </g>
   <g id="line2d_39">
    <path clip-path="url(#pa3b2149d4d)" d="
M86.7038 356.04
L91.6058 355.202
L102.008 353.643
L116.426 351.714
L134.258 349.559
L154.784 347.305
L176.984 345.093
L199.715 343.05
L222.047 341.266
L243.415 339.779
L263.596 338.595
L282.591 337.701
L300.499 337.079
L317.469 336.71
L333.68 336.578
L349.342 336.672
L358.057 336.676
L383.315 329.419
L397.517 325.558
L407.972 322.938
L416.412 321.046
L423.538 319.669
L424.028 319.472
L429.466 314.577
L434.858 309.423
L436.536 307.623
L439.314 301.841
L442.004 295.727
L444.613 289.24
L447.149 282.336
L449.618 274.961
L452.017 267.088
L454.341 258.691
L456.603 249.677
L458.805 239.98
L460.945 229.537
L463.026 218.257
L465.045 206.078
L467.006 192.873
L468.907 178.536
L470.755 162.881
L471.577 155.293
L471.577 155.293" style="fill:none;stroke:#bfbf00;stroke-linecap:square;stroke-width:2.5;"/>
   </g>
   <g id="line2d_40">
    <path clip-path="url(#pa3b2149d4d)" d="
M86.7038 356.04
L91.6058 355.202
L101.995 353.645
L116.384 351.72
L134.129 349.576
L154.401 347.354
L176.099 345.2
L198.066 343.242
L219.427 341.56
L239.722 340.181
L258.809 339.106
L276.737 338.316
L293.631 337.791
L309.663 337.514
L325.02 337.47
L339.896 337.649
L354.523 338.046
L356.085 337.99
L373.266 333.37
L385.915 330.188
L395.909 327.897
L404.216 326.214
L411.358 324.988
L417.646 324.131
L421.229 323.605
L428.08 318.125
L433.353 313.664
L436.227 308.234
L439.014 302.491
L441.717 296.406
L444.34 289.947
L446.886 283.083
L449.354 275.782
L451.759 267.969
L454.092 259.629
L456.366 250.663
L458.574 241.041
L460.719 230.691
L462.806 219.512
L463.309 216.63
L463.309 216.63" style="fill:none;stroke:#bf00bf;stroke-linecap:square;stroke-width:2.5;"/>
   </g>
   <g id="line2d_41">
    <path clip-path="url(#pa3b2149d4d)" d="
M86.7038 356.04
L91.6057 355.202
L101.994 353.645
L116.353 351.725
L133.967 349.599
L153.886 347.421
L174.898 345.348
L195.862 343.501
L215.998 341.949
L234.977 340.706
L252.735 339.763
L269.373 339.1
L285.041 338.696
L299.929 338.532
L314.211 338.596
L328.097 338.88
L341.842 339.383
L353.525 339.796
L366.145 336.731
L376.569 334.42
L385.365 332.692
L392.952 331.423
L399.648 330.524
L405.65 329.938
L411.115 329.626
L416.143 329.557
L416.834 329.454
L428.659 321.606
L431.679 316.619
L434.603 311.36
L437.435 305.806
L440.183 299.925
L442.851 293.684
L445.437 287.065
L447.949 280.021
L450.392 272.501
L451.866 267.606
L451.866 267.606" style="fill:none;stroke:#00bfbf;stroke-linecap:square;stroke-width:2.5;"/>
   </g>
   <g id="line2d_42">
    <path clip-path="url(#pa3b2149d4d)" d="
M86.7038 356.04
L91.6057 355.202
L101.993 353.645
L116.305 351.732
L133.704 349.635
L153.07 347.527
L173.086 345.572
L192.654 343.881
L211.166 342.502
L228.441 341.435
L244.506 340.663
L259.512 340.161
L273.629 339.91
L287.045 339.892
L299.938 340.096
L312.519 340.516
L325.049 341.158
L337.903 342.041
L348.827 342.773
L358.292 340.837
L366.635 339.352
L374.011 338.26
L380.603 337.505
L386.565 337.043
L392.025 336.838
L397.088 336.869
L401.835 337.118
L406.34 337.576
L409.67 337.89
L415.253 335.335
L419.428 333.659
L420.571 333.122
L423.869 328.717
L427.056 324.089
L430.13 319.23
L433.106 314.11
L435.403 309.839
L435.403 309.839" style="fill:none;stroke:#ff0000;stroke-linecap:square;stroke-width:2.5;"/>
   </g>
   <g id="line2d_43">
    <path clip-path="url(#pa3b2149d4d)" d="
M86.7038 356.04
L91.6056 355.202
L101.977 353.648
L116.186 351.75
L133.179 349.708
L151.578 347.722
L169.976 345.958
L187.451 344.503
L203.652 343.374
L218.569 342.554
L232.32 342.017
L245.091 341.739
L257.05 341.698
L268.378 341.88
L279.262 342.276
L289.899 342.885
L300.559 343.719
L311.702 344.817
L324.474 346.308
L339.666 348.08
L346.504 347.073
L352.851 346.36
L358.717 345.921
L364.151 345.734
L369.223 345.78
L374.02 346.044
L378.635 346.519
L383.183 347.212
L387.858 348.151
L393.164 349.453
L396.544 350.23
L399.785 349.396
L402.603 348.893
L405.044 348.678
L406.449 348.515
L410.305 344.787
L412.502 342.518
L412.502 342.518" style="fill:none;stroke:#008000;stroke-linecap:square;stroke-width:2.5;"/>
   </g>
   <g id="line2d_44">
    <path clip-path="url(#pa3b2149d4d)" d="
M86.7038 356.04
L91.6053 355.202
L101.944 353.653
L115.853 351.8
L131.775 349.904
L147.939 348.2
L163.122 346.82
L176.871 345.789
L189.198 345.083
L200.257 344.669
L210.244 344.514
L219.332 344.591
L227.673 344.882
L235.426 345.372
L242.73 346.055
L249.756 346.934
L256.741 348.033
L264.242 349.444
L286.199 353.754
L291.272 354.378
L296.571 354.801
L303.114 355.086
L313.856 355.299
L325.022 355.343
L327.759 354.968
L331.185 354.729
L335.27 354.674
L340.398 354.839
L359.372 355.656
L374.256 355.86
L389.173 355.88
L390.137 355.751
L391.857 355.773
L397.694 355.95
L398.502 355.317
L398.502 355.317" style="fill:none;stroke:#0000ff;stroke-linecap:square;stroke-width:2.5;"/>
   </g>
  </g>
 </g>
 <defs>
  <clipPath id="pa3b2149d4d">
   <rect height="321.48" width="453.358125" x="86.70375" y="34.56"/>
  </clipPath>
 </defs>
</svg>
