<?xml version="1.0" encoding="utf-8" standalone="no"?>
<!DOCTYPE svg PUBLIC "-//W3C//DTD SVG 1.1//EN"
  "http://www.w3.org/Graphics/SVG/1.1/DTD/svg11.dtd">
<!-- Created with matplotlib (http://matplotlib.org/) -->
<svg height="432pt" version="1.1" viewBox="0 0 576 432" width="576pt" xmlns="http://www.w3.org/2000/svg" xmlns:xlink="http://www.w3.org/1999/xlink">
 <defs>
  <style type="text/css">
*{stroke-linecap:butt;stroke-linejoin:round;}
  </style>
 </defs>
 <g id="figure_1">
  <g id="patch_1">
   <path d="
M0 432
L576 432
L576 0
L0 0
z
" style="fill:#ffffff;"/>
  </g>
  <g id="axes_1">
   <g id="patch_2">
    <path d="
M79.2225 356.04
L552.24 356.04
L552.24 34.56
L79.2225 34.56
z
" style="fill:#ffffff;"/>
   </g>
   <g id="line2d_1">
    <path clip-path="url(#p7e0d3d5be1)" d="
M79.2225 356.04
L154.369 354.227
L199.22 352.902
L237.277 351.561
L270.022 350.189
L298.423 348.782
L323.229 347.336
L344.968 345.85
L364.164 344.319
L381.123 342.748
L396.219 341.13
L409.61 339.477
L421.592 337.778
L432.391 336.026
L442.086 334.232
L450.827 332.392
L458.76 330.497
L465.964 328.55
L472.512 326.551
L478.481 324.498
L483.942 322.385
L488.901 320.232
L493.498 317.995
L497.736 315.686
L501.619 313.321
L505.215 310.874
L508.596 308.304
L511.695 305.673
L514.648 302.872
L517.39 299.963
L519.989 296.875
L522.378 293.693
L522.908 292.773
L524.891 288.732
L526.802 284.335
L528.64 279.538
L530.406 274.288
L532.1 268.525
L533.722 262.176
L535.273 255.156
L536.689 247.727
L538.099 239.1
L539.438 229.441
L540.707 218.574
L541.907 206.276
L543.037 192.276
L544.099 176.226
L545.092 157.687
L546.017 136.088
L546.874 110.679
L547.483 82.8967
L547.483 82.8967" style="fill:none;stroke:#ff0000;stroke-linecap:square;stroke-width:2.5;"/>
   </g>
   <g id="matplotlib.axis_1">
    <g id="xtick_1">
     <g id="line2d_2">
      <defs>
       <path d="
M0 0
L0 -4" id="m93b0483c22" style="stroke:#000000;stroke-width:0.5;"/>
      </defs>
      <g>
       <use style="stroke:#000000;stroke-width:0.5;" x="79.2225" xlink:href="#m93b0483c22" y="356.04"/>
      </g>
     </g>
     <g id="line2d_3">
      <defs>
       <path d="
M0 0
L0 4" id="m741efc42ff" style="stroke:#000000;stroke-width:0.5;"/>
      </defs>
      <g>
       <use style="stroke:#000000;stroke-width:0.5;" x="79.2225" xlink:href="#m741efc42ff" y="34.56"/>
      </g>
     </g>
     <g id="text_1">
      <!-- 0 -->
      <defs>
       <path d="
M31.7812 66.4062
Q24.1719 66.4062 20.3281 58.9062
Q16.5 51.4219 16.5 36.375
Q16.5 21.3906 20.3281 13.8906
Q24.1719 6.39062 31.7812 6.39062
Q39.4531 6.39062 43.2812 13.8906
Q47.125 21.3906 47.125 36.375
Q47.125 51.4219 43.2812 58.9062
Q39.4531 66.4062 31.7812 66.4062
M31.7812 74.2188
Q44.0469 74.2188 50.5156 64.5156
Q56.9844 54.8281 56.9844 36.375
Q56.9844 17.9688 50.5156 8.26562
Q44.0469 -1.42188 31.7812 -1.42188
Q19.5312 -1.42188 13.0625 8.26562
Q6.59375 17.9688 6.59375 36.375
Q6.59375 54.8281 13.0625 64.5156
Q19.5312 74.2188 31.7812 74.2188" id="DejaVuSans-30"/>
      </defs>
      <g transform="translate(73.67953125 376.7565625)scale(0.22 -0.22)">
       <use xlink:href="#DejaVuSans-30"/>
      </g>
     </g>
    </g>
    <g id="xtick_2">
     <g id="line2d_4">
      <g>
       <use style="stroke:#000000;stroke-width:0.5;" x="153.131484375" xlink:href="#m93b0483c22" y="356.04"/>
      </g>
     </g>
     <g id="line2d_5">
      <g>
       <use style="stroke:#000000;stroke-width:0.5;" x="153.131484375" xlink:href="#m741efc42ff" y="34.56"/>
      </g>
     </g>
     <g id="text_2">
      <!-- 5 -->
      <defs>
       <path d="
M10.7969 72.9062
L49.5156 72.9062
L49.5156 64.5938
L19.8281 64.5938
L19.8281 46.7344
Q21.9688 47.4688 24.1094 47.8281
Q26.2656 48.1875 28.4219 48.1875
Q40.625 48.1875 47.75 41.5
Q54.8906 34.8125 54.8906 23.3906
Q54.8906 11.625 47.5625 5.09375
Q40.2344 -1.42188 26.9062 -1.42188
Q22.3125 -1.42188 17.5469 -0.640625
Q12.7969 0.140625 7.71875 1.70312
L7.71875 11.625
Q12.1094 9.23438 16.7969 8.0625
Q21.4844 6.89062 26.7031 6.89062
Q35.1562 6.89062 40.0781 11.3281
Q45.0156 15.7656 45.0156 23.3906
Q45.0156 31 40.0781 35.4375
Q35.1562 39.8906 26.7031 39.8906
Q22.75 39.8906 18.8125 39.0156
Q14.8906 38.1406 10.7969 36.2812
z
" id="DejaVuSans-35"/>
      </defs>
      <g transform="translate(147.942578125 376.7565625)scale(0.22 -0.22)">
       <use xlink:href="#DejaVuSans-35"/>
      </g>
     </g>
    </g>
    <g id="xtick_3">
     <g id="line2d_6">
      <g>
       <use style="stroke:#000000;stroke-width:0.5;" x="227.04046875" xlink:href="#m93b0483c22" y="356.04"/>
      </g>
     </g>
     <g id="line2d_7">
      <g>
       <use style="stroke:#000000;stroke-width:0.5;" x="227.04046875" xlink:href="#m741efc42ff" y="34.56"/>
      </g>
     </g>
     <g id="text_3">
      <!-- 10 -->
      <defs>
       <path d="
M12.4062 8.29688
L28.5156 8.29688
L28.5156 63.9219
L10.9844 60.4062
L10.9844 69.3906
L28.4219 72.9062
L38.2812 72.9062
L38.2812 8.29688
L54.3906 8.29688
L54.3906 0
L12.4062 0
z
" id="DejaVuSans-31"/>
      </defs>
      <g transform="translate(214.98171875 376.7565625)scale(0.22 -0.22)">
       <use xlink:href="#DejaVuSans-31"/>
       <use x="63.623046875" xlink:href="#DejaVuSans-30"/>
      </g>
     </g>
    </g>
    <g id="xtick_4">
     <g id="line2d_8">
      <g>
       <use style="stroke:#000000;stroke-width:0.5;" x="300.949453125" xlink:href="#m93b0483c22" y="356.04"/>
      </g>
     </g>
     <g id="line2d_9">
      <g>
       <use style="stroke:#000000;stroke-width:0.5;" x="300.949453125" xlink:href="#m741efc42ff" y="34.56"/>
      </g>
     </g>
     <g id="text_4">
      <!-- 15 -->
      <g transform="translate(289.121015625 376.7565625)scale(0.22 -0.22)">
       <use xlink:href="#DejaVuSans-31"/>
       <use x="63.623046875" xlink:href="#DejaVuSans-35"/>
      </g>
     </g>
    </g>
    <g id="xtick_5">
     <g id="line2d_10">
      <g>
       <use style="stroke:#000000;stroke-width:0.5;" x="374.8584375" xlink:href="#m93b0483c22" y="356.04"/>
      </g>
     </g>
     <g id="line2d_11">
      <g>
       <use style="stroke:#000000;stroke-width:0.5;" x="374.8584375" xlink:href="#m741efc42ff" y="34.56"/>
      </g>
     </g>
     <g id="text_5">
      <!-- 20 -->
      <defs>
       <path d="
M19.1875 8.29688
L53.6094 8.29688
L53.6094 0
L7.32812 0
L7.32812 8.29688
Q12.9375 14.1094 22.625 23.8906
Q32.3281 33.6875 34.8125 36.5312
Q39.5469 41.8438 41.4219 45.5312
Q43.3125 49.2188 43.3125 52.7812
Q43.3125 58.5938 39.2344 62.25
Q35.1562 65.9219 28.6094 65.9219
Q23.9688 65.9219 18.8125 64.3125
Q13.6719 62.7031 7.8125 59.4219
L7.8125 69.3906
Q13.7656 71.7812 18.9375 73
Q24.125 74.2188 28.4219 74.2188
Q39.75 74.2188 46.4844 68.5469
Q53.2188 62.8906 53.2188 53.4219
Q53.2188 48.9219 51.5312 44.8906
Q49.8594 40.875 45.4062 35.4062
Q44.1875 33.9844 37.6406 27.2188
Q31.1094 20.4531 19.1875 8.29688" id="DejaVuSans-32"/>
      </defs>
      <g transform="translate(362.3975 376.7565625)scale(0.22 -0.22)">
       <use xlink:href="#DejaVuSans-32"/>
       <use x="63.623046875" xlink:href="#DejaVuSans-30"/>
      </g>
     </g>
    </g>
    <g id="xtick_6">
     <g id="line2d_12">
      <g>
       <use style="stroke:#000000;stroke-width:0.5;" x="448.767421875" xlink:href="#m93b0483c22" y="356.04"/>
      </g>
     </g>
     <g id="line2d_13">
      <g>
       <use style="stroke:#000000;stroke-width:0.5;" x="448.767421875" xlink:href="#m741efc42ff" y="34.56"/>
      </g>
     </g>
     <g id="text_6">
      <!-- 25 -->
      <g transform="translate(436.536796875 376.7565625)scale(0.22 -0.22)">
       <use xlink:href="#DejaVuSans-32"/>
       <use x="63.623046875" xlink:href="#DejaVuSans-35"/>
      </g>
     </g>
    </g>
    <g id="xtick_7">
     <g id="line2d_14">
      <g>
       <use style="stroke:#000000;stroke-width:0.5;" x="522.67640625" xlink:href="#m93b0483c22" y="356.04"/>
      </g>
     </g>
     <g id="line2d_15">
      <g>
       <use style="stroke:#000000;stroke-width:0.5;" x="522.67640625" xlink:href="#m741efc42ff" y="34.56"/>
      </g>
     </g>
     <g id="text_7">
      <!-- 30 -->
      <defs>
       <path d="
M40.5781 39.3125
Q47.6562 37.7969 51.625 33
Q55.6094 28.2188 55.6094 21.1875
Q55.6094 10.4062 48.1875 4.48438
Q40.7656 -1.42188 27.0938 -1.42188
Q22.5156 -1.42188 17.6562 -0.515625
Q12.7969 0.390625 7.625 2.20312
L7.625 11.7188
Q11.7188 9.32812 16.5938 8.10938
Q21.4844 6.89062 26.8125 6.89062
Q36.0781 6.89062 40.9375 10.5469
Q45.7969 14.2031 45.7969 21.1875
Q45.7969 27.6406 41.2812 31.2656
Q36.7656 34.9062 28.7188 34.9062
L20.2188 34.9062
L20.2188 43.0156
L29.1094 43.0156
Q36.375 43.0156 40.2344 45.9219
Q44.0938 48.8281 44.0938 54.2969
Q44.0938 59.9062 40.1094 62.9062
Q36.1406 65.9219 28.7188 65.9219
Q24.6562 65.9219 20.0156 65.0312
Q15.375 64.1562 9.8125 62.3125
L9.8125 71.0938
Q15.4375 72.6562 20.3438 73.4375
Q25.25 74.2188 29.5938 74.2188
Q40.8281 74.2188 47.3594 69.1094
Q53.9062 64.0156 53.9062 55.3281
Q53.9062 49.2656 50.4375 45.0938
Q46.9688 40.9219 40.5781 39.3125" id="DejaVuSans-33"/>
      </defs>
      <g transform="translate(510.248125 376.7565625)scale(0.22 -0.22)">
       <use xlink:href="#DejaVuSans-33"/>
       <use x="63.623046875" xlink:href="#DejaVuSans-30"/>
      </g>
     </g>
    </g>
    <g id="text_8">
     <!-- Depth (cm) -->
     <defs>
      <path d="
M8.01562 75.875
L15.8281 75.875
Q23.1406 64.3594 26.7812 53.3125
Q30.4219 42.2812 30.4219 31.3906
Q30.4219 20.4531 26.7812 9.375
Q23.1406 -1.70312 15.8281 -13.1875
L8.01562 -13.1875
Q14.5 -2 17.7031 9.0625
Q20.9062 20.125 20.9062 31.3906
Q20.9062 42.6719 17.7031 53.6562
Q14.5 64.6562 8.01562 75.875" id="DejaVuSans-29"/>
      <path d="
M52 44.1875
Q55.375 50.25 60.0625 53.125
Q64.75 56 71.0938 56
Q79.6406 56 84.2812 50.0156
Q88.9219 44.0469 88.9219 33.0156
L88.9219 0
L79.8906 0
L79.8906 32.7188
Q79.8906 40.5781 77.0938 44.375
Q74.3125 48.1875 68.6094 48.1875
Q61.625 48.1875 57.5625 43.5469
Q53.5156 38.9219 53.5156 30.9062
L53.5156 0
L44.4844 0
L44.4844 32.7188
Q44.4844 40.625 41.7031 44.4062
Q38.9219 48.1875 33.1094 48.1875
Q26.2188 48.1875 22.1562 43.5312
Q18.1094 38.875 18.1094 30.9062
L18.1094 0
L9.07812 0
L9.07812 54.6875
L18.1094 54.6875
L18.1094 46.1875
Q21.1875 51.2188 25.4844 53.6094
Q29.7812 56 35.6875 56
Q41.6562 56 45.8281 52.9688
Q50 49.9531 52 44.1875" id="DejaVuSans-6d"/>
      <path d="
M48.7812 52.5938
L48.7812 44.1875
Q44.9688 46.2969 41.1406 47.3438
Q37.3125 48.3906 33.4062 48.3906
Q24.6562 48.3906 19.8125 42.8438
Q14.9844 37.3125 14.9844 27.2969
Q14.9844 17.2812 19.8125 11.7344
Q24.6562 6.20312 33.4062 6.20312
Q37.3125 6.20312 41.1406 7.25
Q44.9688 8.29688 48.7812 10.4062
L48.7812 2.09375
Q45.0156 0.34375 40.9844 -0.53125
Q36.9688 -1.42188 32.4219 -1.42188
Q20.0625 -1.42188 12.7812 6.34375
Q5.51562 14.1094 5.51562 27.2969
Q5.51562 40.6719 12.8594 48.3281
Q20.2188 56 33.0156 56
Q37.1562 56 41.1094 55.1406
Q45.0625 54.2969 48.7812 52.5938" id="DejaVuSans-63"/>
      <path d="
M19.6719 64.7969
L19.6719 8.10938
L31.5938 8.10938
Q46.6875 8.10938 53.6875 14.9375
Q60.6875 21.7812 60.6875 36.5312
Q60.6875 51.1719 53.6875 57.9844
Q46.6875 64.7969 31.5938 64.7969
z

M9.8125 72.9062
L30.0781 72.9062
Q51.2656 72.9062 61.1719 64.0938
Q71.0938 55.2812 71.0938 36.5312
Q71.0938 17.6719 61.125 8.82812
Q51.1719 0 30.0781 0
L9.8125 0
z
" id="DejaVuSans-44"/>
      <path id="DejaVuSans-20"/>
      <path d="
M54.8906 33.0156
L54.8906 0
L45.9062 0
L45.9062 32.7188
Q45.9062 40.4844 42.875 44.3281
Q39.8438 48.1875 33.7969 48.1875
Q26.5156 48.1875 22.3125 43.5469
Q18.1094 38.9219 18.1094 30.9062
L18.1094 0
L9.07812 0
L9.07812 75.9844
L18.1094 75.9844
L18.1094 46.1875
Q21.3438 51.125 25.7031 53.5625
Q30.0781 56 35.7969 56
Q45.2188 56 50.0469 50.1719
Q54.8906 44.3438 54.8906 33.0156" id="DejaVuSans-68"/>
      <path d="
M18.3125 70.2188
L18.3125 54.6875
L36.8125 54.6875
L36.8125 47.7031
L18.3125 47.7031
L18.3125 18.0156
Q18.3125 11.3281 20.1406 9.42188
Q21.9688 7.51562 27.5938 7.51562
L36.8125 7.51562
L36.8125 0
L27.5938 0
Q17.1875 0 13.2344 3.875
Q9.28125 7.76562 9.28125 18.0156
L9.28125 47.7031
L2.6875 47.7031
L2.6875 54.6875
L9.28125 54.6875
L9.28125 70.2188
z
" id="DejaVuSans-74"/>
      <path d="
M31 75.875
Q24.4688 64.6562 21.2812 53.6562
Q18.1094 42.6719 18.1094 31.3906
Q18.1094 20.125 21.3125 9.0625
Q24.5156 -2 31 -13.1875
L23.1875 -13.1875
Q15.875 -1.70312 12.2344 9.375
Q8.59375 20.4531 8.59375 31.3906
Q8.59375 42.2812 12.2031 53.3125
Q15.8281 64.3594 23.1875 75.875
z
" id="DejaVuSans-28"/>
      <path d="
M56.2031 29.5938
L56.2031 25.2031
L14.8906 25.2031
Q15.4844 15.9219 20.4844 11.0625
Q25.4844 6.20312 34.4219 6.20312
Q39.5938 6.20312 44.4531 7.46875
Q49.3125 8.73438 54.1094 11.2812
L54.1094 2.78125
Q49.2656 0.734375 44.1875 -0.34375
Q39.1094 -1.42188 33.8906 -1.42188
Q20.7969 -1.42188 13.1562 6.1875
Q5.51562 13.8125 5.51562 26.8125
Q5.51562 40.2344 12.7656 48.1094
Q20.0156 56 32.3281 56
Q43.3594 56 49.7812 48.8906
Q56.2031 41.7969 56.2031 29.5938
M47.2188 32.2344
Q47.125 39.5938 43.0938 43.9844
Q39.0625 48.3906 32.4219 48.3906
Q24.9062 48.3906 20.3906 44.1406
Q15.875 39.8906 15.1875 32.1719
z
" id="DejaVuSans-65"/>
      <path d="
M18.1094 8.20312
L18.1094 -20.7969
L9.07812 -20.7969
L9.07812 54.6875
L18.1094 54.6875
L18.1094 46.3906
Q20.9531 51.2656 25.2656 53.625
Q29.5938 56 35.5938 56
Q45.5625 56 51.7812 48.0938
Q58.0156 40.1875 58.0156 27.2969
Q58.0156 14.4062 51.7812 6.48438
Q45.5625 -1.42188 35.5938 -1.42188
Q29.5938 -1.42188 25.2656 0.953125
Q20.9531 3.32812 18.1094 8.20312
M48.6875 27.2969
Q48.6875 37.2031 44.6094 42.8438
Q40.5312 48.4844 33.4062 48.4844
Q26.2656 48.4844 22.1875 42.8438
Q18.1094 37.2031 18.1094 27.2969
Q18.1094 17.3906 22.1875 11.75
Q26.2656 6.10938 33.4062 6.10938
Q40.5312 6.10938 44.6094 11.75
Q48.6875 17.3906 48.6875 27.2969" id="DejaVuSans-70"/>
     </defs>
     <g transform="translate(254.32890625 403.0484375)scale(0.22 -0.22)">
      <use xlink:href="#DejaVuSans-44"/>
      <use x="77.001953125" xlink:href="#DejaVuSans-65"/>
      <use x="138.525390625" xlink:href="#DejaVuSans-70"/>
      <use x="202.001953125" xlink:href="#DejaVuSans-74"/>
      <use x="241.2109375" xlink:href="#DejaVuSans-68"/>
      <use x="304.58984375" xlink:href="#DejaVuSans-20"/>
      <use x="336.376953125" xlink:href="#DejaVuSans-28"/>
      <use x="375.390625" xlink:href="#DejaVuSans-63"/>
      <use x="430.37109375" xlink:href="#DejaVuSans-6d"/>
      <use x="527.783203125" xlink:href="#DejaVuSans-29"/>
     </g>
    </g>
   </g>
   <g id="matplotlib.axis_2">
    <g id="ytick_1">
     <g id="line2d_16">
      <defs>
       <path d="
M0 0
L4 0" id="m728421d6d4" style="stroke:#000000;stroke-width:0.5;"/>
      </defs>
      <g>
       <use style="stroke:#000000;stroke-width:0.5;" x="79.2225" xlink:href="#m728421d6d4" y="356.04"/>
      </g>
     </g>
     <g id="line2d_17">
      <defs>
       <path d="
M0 0
L-4 0" id="mcb0005524f" style="stroke:#000000;stroke-width:0.5;"/>
      </defs>
      <g>
       <use style="stroke:#000000;stroke-width:0.5;" x="552.24" xlink:href="#mcb0005524f" y="356.04"/>
      </g>
     </g>
     <g id="text_9">
      <!-- 0 -->
      <g transform="translate(64.1365625 362.110625)scale(0.22 -0.22)">
       <use xlink:href="#DejaVuSans-30"/>
      </g>
     </g>
    </g>
    <g id="ytick_2">
     <g id="line2d_18">
      <g>
       <use style="stroke:#000000;stroke-width:0.5;" x="79.2225" xlink:href="#m728421d6d4" y="302.46"/>
      </g>
     </g>
     <g id="line2d_19">
      <g>
       <use style="stroke:#000000;stroke-width:0.5;" x="552.24" xlink:href="#mcb0005524f" y="302.46"/>
      </g>
     </g>
     <g id="text_10">
      <!-- 5 -->
      <g transform="translate(64.8446875 308.530625)scale(0.22 -0.22)">
       <use xlink:href="#DejaVuSans-35"/>
      </g>
     </g>
    </g>
    <g id="ytick_3">
     <g id="line2d_20">
      <g>
       <use style="stroke:#000000;stroke-width:0.5;" x="79.2225" xlink:href="#m728421d6d4" y="248.88"/>
      </g>
     </g>
     <g id="line2d_21">
      <g>
       <use style="stroke:#000000;stroke-width:0.5;" x="552.24" xlink:href="#mcb0005524f" y="248.88"/>
      </g>
     </g>
     <g id="text_11">
      <!-- 10 -->
      <g transform="translate(51.105 254.950625)scale(0.22 -0.22)">
       <use xlink:href="#DejaVuSans-31"/>
       <use x="63.623046875" xlink:href="#DejaVuSans-30"/>
      </g>
     </g>
    </g>
    <g id="ytick_4">
     <g id="line2d_22">
      <g>
       <use style="stroke:#000000;stroke-width:0.5;" x="79.2225" xlink:href="#m728421d6d4" y="195.3"/>
      </g>
     </g>
     <g id="line2d_23">
      <g>
       <use style="stroke:#000000;stroke-width:0.5;" x="552.24" xlink:href="#mcb0005524f" y="195.3"/>
      </g>
     </g>
     <g id="text_12">
      <!-- 15 -->
      <g transform="translate(51.565625 201.370625)scale(0.22 -0.22)">
       <use xlink:href="#DejaVuSans-31"/>
       <use x="63.623046875" xlink:href="#DejaVuSans-35"/>
      </g>
     </g>
    </g>
    <g id="ytick_5">
     <g id="line2d_24">
      <g>
       <use style="stroke:#000000;stroke-width:0.5;" x="79.2225" xlink:href="#m728421d6d4" y="141.72"/>
      </g>
     </g>
     <g id="line2d_25">
      <g>
       <use style="stroke:#000000;stroke-width:0.5;" x="552.24" xlink:href="#mcb0005524f" y="141.72"/>
      </g>
     </g>
     <g id="text_13">
      <!-- 20 -->
      <g transform="translate(50.300625 147.790625)scale(0.22 -0.22)">
       <use xlink:href="#DejaVuSans-32"/>
       <use x="63.623046875" xlink:href="#DejaVuSans-30"/>
      </g>
     </g>
    </g>
    <g id="ytick_6">
     <g id="line2d_26">
      <g>
       <use style="stroke:#000000;stroke-width:0.5;" x="79.2225" xlink:href="#m728421d6d4" y="88.14"/>
      </g>
     </g>
     <g id="line2d_27">
      <g>
       <use style="stroke:#000000;stroke-width:0.5;" x="552.24" xlink:href="#mcb0005524f" y="88.14"/>
      </g>
     </g>
     <g id="text_14">
      <!-- 25 -->
      <g transform="translate(50.76125 94.210625)scale(0.22 -0.22)">
       <use xlink:href="#DejaVuSans-32"/>
       <use x="63.623046875" xlink:href="#DejaVuSans-35"/>
      </g>
     </g>
    </g>
    <g id="ytick_7">
     <g id="line2d_28">
      <g>
       <use style="stroke:#000000;stroke-width:0.5;" x="79.2225" xlink:href="#m728421d6d4" y="34.56"/>
      </g>
     </g>
     <g id="line2d_29">
      <g>
       <use style="stroke:#000000;stroke-width:0.5;" x="552.24" xlink:href="#mcb0005524f" y="34.56"/>
      </g>
     </g>
     <g id="text_15">
      <!-- 30 -->
      <g transform="translate(50.3659375 40.630625)scale(0.22 -0.22)">
       <use xlink:href="#DejaVuSans-33"/>
       <use x="63.623046875" xlink:href="#DejaVuSans-30"/>
      </g>
     </g>
    </g>
    <g id="text_16">
     <!-- Pressure (atm) -->
     <defs>
      <path d="
M8.5 21.5781
L8.5 54.6875
L17.4844 54.6875
L17.4844 21.9219
Q17.4844 14.1562 20.5 10.2656
Q23.5312 6.39062 29.5938 6.39062
Q36.8594 6.39062 41.0781 11.0312
Q45.3125 15.6719 45.3125 23.6875
L45.3125 54.6875
L54.2969 54.6875
L54.2969 0
L45.3125 0
L45.3125 8.40625
Q42.0469 3.42188 37.7188 1
Q33.4062 -1.42188 27.6875 -1.42188
Q18.2656 -1.42188 13.375 4.4375
Q8.5 10.2969 8.5 21.5781
M31.1094 56
z
" id="DejaVuSans-75"/>
      <path d="
M19.6719 64.7969
L19.6719 37.4062
L32.0781 37.4062
Q38.9688 37.4062 42.7188 40.9688
Q46.4844 44.5312 46.4844 51.125
Q46.4844 57.6719 42.7188 61.2344
Q38.9688 64.7969 32.0781 64.7969
z

M9.8125 72.9062
L32.0781 72.9062
Q44.3438 72.9062 50.6094 67.3594
Q56.8906 61.8125 56.8906 51.125
Q56.8906 40.3281 50.6094 34.8125
Q44.3438 29.2969 32.0781 29.2969
L19.6719 29.2969
L19.6719 0
L9.8125 0
z
" id="DejaVuSans-50"/>
      <path d="
M34.2812 27.4844
Q23.3906 27.4844 19.1875 25
Q14.9844 22.5156 14.9844 16.5
Q14.9844 11.7188 18.1406 8.90625
Q21.2969 6.10938 26.7031 6.10938
Q34.1875 6.10938 38.7031 11.4062
Q43.2188 16.7031 43.2188 25.4844
L43.2188 27.4844
z

M52.2031 31.2031
L52.2031 0
L43.2188 0
L43.2188 8.29688
Q40.1406 3.32812 35.5469 0.953125
Q30.9531 -1.42188 24.3125 -1.42188
Q15.9219 -1.42188 10.9531 3.29688
Q6 8.01562 6 15.9219
Q6 25.1406 12.1719 29.8281
Q18.3594 34.5156 30.6094 34.5156
L43.2188 34.5156
L43.2188 35.4062
Q43.2188 41.6094 39.1406 45
Q35.0625 48.3906 27.6875 48.3906
Q23 48.3906 18.5469 47.2656
Q14.1094 46.1406 10.0156 43.8906
L10.0156 52.2031
Q14.9375 54.1094 19.5781 55.0469
Q24.2188 56 28.6094 56
Q40.4844 56 46.3438 49.8438
Q52.2031 43.7031 52.2031 31.2031" id="DejaVuSans-61"/>
      <path d="
M44.2812 53.0781
L44.2812 44.5781
Q40.4844 46.5312 36.375 47.5
Q32.2812 48.4844 27.875 48.4844
Q21.1875 48.4844 17.8438 46.4375
Q14.5 44.3906 14.5 40.2812
Q14.5 37.1562 16.8906 35.375
Q19.2812 33.5938 26.5156 31.9844
L29.5938 31.2969
Q39.1562 29.25 43.1875 25.5156
Q47.2188 21.7812 47.2188 15.0938
Q47.2188 7.46875 41.1875 3.01562
Q35.1562 -1.42188 24.6094 -1.42188
Q20.2188 -1.42188 15.4531 -0.5625
Q10.6875 0.296875 5.42188 2
L5.42188 11.2812
Q10.4062 8.6875 15.2344 7.39062
Q20.0625 6.10938 24.8125 6.10938
Q31.1562 6.10938 34.5625 8.28125
Q37.9844 10.4531 37.9844 14.4062
Q37.9844 18.0625 35.5156 20.0156
Q33.0625 21.9688 24.7031 23.7812
L21.5781 24.5156
Q13.2344 26.2656 9.51562 29.9062
Q5.8125 33.5469 5.8125 39.8906
Q5.8125 47.6094 11.2812 51.7969
Q16.75 56 26.8125 56
Q31.7812 56 36.1719 55.2656
Q40.5781 54.5469 44.2812 53.0781" id="DejaVuSans-73"/>
      <path d="
M41.1094 46.2969
Q39.5938 47.1719 37.8125 47.5781
Q36.0312 48 33.8906 48
Q26.2656 48 22.1875 43.0469
Q18.1094 38.0938 18.1094 28.8125
L18.1094 0
L9.07812 0
L9.07812 54.6875
L18.1094 54.6875
L18.1094 46.1875
Q20.9531 51.1719 25.4844 53.5781
Q30.0312 56 36.5312 56
Q37.4531 56 38.5781 55.875
Q39.7031 55.7656 41.0625 55.5156
z
" id="DejaVuSans-72"/>
     </defs>
     <g transform="translate(40.7253125 275.16)rotate(-90.0)scale(0.22 -0.22)">
      <use xlink:href="#DejaVuSans-50"/>
      <use x="58.552734375" xlink:href="#DejaVuSans-72"/>
      <use x="97.416015625" xlink:href="#DejaVuSans-65"/>
      <use x="158.939453125" xlink:href="#DejaVuSans-73"/>
      <use x="211.0390625" xlink:href="#DejaVuSans-73"/>
      <use x="263.138671875" xlink:href="#DejaVuSans-75"/>
      <use x="326.517578125" xlink:href="#DejaVuSans-72"/>
      <use x="365.380859375" xlink:href="#DejaVuSans-65"/>
      <use x="426.904296875" xlink:href="#DejaVuSans-20"/>
      <use x="458.69140625" xlink:href="#DejaVuSans-28"/>
      <use x="497.705078125" xlink:href="#DejaVuSans-61"/>
      <use x="558.984375" xlink:href="#DejaVuSans-74"/>
      <use x="598.193359375" xlink:href="#DejaVuSans-6d"/>
      <use x="695.60546875" xlink:href="#DejaVuSans-29"/>
     </g>
    </g>
   </g>
   <g id="patch_3">
    <path d="
M79.2225 34.56
L552.24 34.56" style="fill:none;stroke:#000000;"/>
   </g>
   <g id="patch_4">
    <path d="
M552.24 356.04
L552.24 34.56" style="fill:none;stroke:#000000;"/>
   </g>
   <g id="patch_5">
    <path d="
M79.2225 356.04
L552.24 356.04" style="fill:none;stroke:#000000;"/>
   </g>
   <g id="patch_6">
    <path d="
M79.2225 356.04
L79.2225 34.56" style="fill:none;stroke:#000000;"/>
   </g>
   <g id="line2d_30">
    <path clip-path="url(#p7e0d3d5be1)" d="
M79.2225 356.04
L159.742 354.105
L205.122 352.766
L243.561 351.415
L276.595 350.037
L305.232 348.625
L330.215 347.174
L352.092 345.687
L371.338 344.16
L388.363 342.591
L403.443 340.984
L416.914 339.328
L428.919 337.632
L439.662 335.894
L449.281 334.118
L457.975 332.29
L465.816 330.418
L472.936 328.493
L479.343 326.535
L485.227 324.506
L490.593 322.422
L495.448 320.301
L499.916 318.111
L504.003 315.865
L507.77 313.545
L511.282 311.123
L514.539 308.605
L515.484 307.7
L517.957 304.606
L520.302 301.308
L522.521 297.796
L524.614 294.061
L526.582 290.097
L528.483 285.761
L530.261 281.157
L531.973 276.107
L533.62 270.545
L535.202 264.392
L536.663 257.824
L538.059 250.538
L539.392 242.414
L540.661 233.307
L541.867 223.032
L543.011 211.357
L544.092 197.983
L544.736 186.029
L545.643 165.538
L546.49 141.228
L547.225 114.211
L547.485 100.373
L547.485 100.373" style="fill:none;stroke:#008000;stroke-linecap:square;stroke-width:2.5;"/>
   </g>
   <g id="line2d_31">
    <path clip-path="url(#p7e0d3d5be1)" d="
M79.2225 356.04
L167.38 353.932
L213.323 352.577
L252.228 351.214
L285.638 349.825
L314.575 348.405
L339.766 346.951
L361.874 345.457
L381.275 343.928
L398.395 342.361
L413.597 340.751
L427.073 339.104
L439.067 337.419
L449.819 335.689
L459.455 333.917
L468.098 332.105
L475.87 330.252
L482.891 328.354
L489.223 326.415
L494.982 324.423
L500.177 322.396
L504.918 320.312
L506.266 319.561
L509.47 317.111
L512.451 314.553
L515.263 311.846
L517.855 309.044
L520.332 306.037
L522.644 302.881
L524.843 299.502
L526.928 295.881
L528.902 292.002
L530.765 287.847
L532.517 283.4
L534.209 278.495
L535.793 273.228
L537.317 267.384
L538.781 260.86
L539.999 254.532
L541.208 244.692
L542.313 233.869
L543.363 221.438
L544.222 208.756
L545.117 188.905
L545.958 165.114
L546.744 136.284
L547.475 100.914
L547.475 100.914" style="fill:none;stroke:#0000ff;stroke-linecap:square;stroke-width:2.5;"/>
   </g>
   <g id="line2d_32">
    <path clip-path="url(#p7e0d3d5be1)" d="
M79.2225 356.04
L179.005 353.669
L225.646 352.292
L265.076 350.911
L298.962 349.508
L328.36 348.073
L353.967 346.605
L376.375 345.103
L396.121 343.561
L413.536 341.983
L428.947 340.367
L442.627 338.714
L454.842 337.019
L465.712 335.29
L475.448 333.521
L484.209 331.707
L492.058 329.86
L494.609 329.113
L499.104 327.041
L503.21 324.907
L506.978 322.701
L510.455 320.413
L513.689 318.022
L516.682 315.536
L519.479 312.926
L522.085 310.196
L524.541 307.302
L526.851 304.238
L529.016 301
L531.079 297.515
L533.039 293.76
L533.991 291.595
L535.525 286.317
L536.966 280.563
L538.351 274.101
L539.341 268.524
L540.471 259.093
L541.55 248.236
L542.576 235.658
L543.549 220.985
L544.468 203.744
L545.333 183.331
L546.143 158.982
L546.928 128.293
L547.497 99.7001
L547.497 99.7001" style="fill:none;stroke:#000000;stroke-linecap:square;stroke-width:2.5;"/>
   </g>
   <g id="line2d_33">
    <path clip-path="url(#p7e0d3d5be1)" d="
M79.2225 356.04
L198.405 353.229
L245.859 351.82
L286.156 350.406
L320.955 348.968
L351.257 347.498
L377.843 345.99
L401.315 344.44
L422.178 342.843
L440.845 341.196
L457.75 339.484
L473.272 337.692
L479.96 336.758
L486.646 334.939
L492.734 333.056
L498.269 331.113
L503.335 329.101
L507.975 327.02
L512.233 324.871
L516.184 322.63
L519.867 320.288
L523.319 317.831
L524.955 316.473
L527.089 313.421
L529.097 310.161
L531.011 306.628
L531.724 304.993
L533.226 300.115
L534.642 294.751
L536.003 288.717
L537.306 281.911
L538.548 274.212
L539.728 265.489
L540.867 255.35
L541.932 243.838
L542.94 230.519
L543.896 214.911
L544.802 196.421
L545.66 174.215
L545.675 173.753
L545.675 173.753" style="fill:none;stroke:#bfbf00;stroke-linecap:square;stroke-width:2.5;"/>
   </g>
   <g id="line2d_34">
    <path clip-path="url(#p7e0d3d5be1)" d="
M79.2225 356.04
L235.97 352.378
L285.053 350.898
L327.9 349.388
L366.424 347.811
L402.717 346.103
L443.159 343.965
L461.845 342.836
L472.813 341.13
L482.93 339.333
L492.481 337.412
L502.094 335.25
L511.728 332.869
L515.389 330.713
L518.851 328.415
L519.94 327.524
L522.035 324.803
L524.008 321.872
L525.878 318.687
L527.642 315.241
L529.313 311.486
L530.92 307.321
L532.455 302.709
L533.908 297.633
L535.308 291.918
L535.837 289.504
L535.837 289.504" style="fill:none;stroke:#bf00bf;stroke-linecap:square;stroke-width:2.5;"/>
   </g>
   <g id="line2d_35">
    <path clip-path="url(#p7e0d3d5be1)" d="
M79.2225 356.04
L127.64 355.054
L223.908 353.004
L298.097 351.195
L422.476 348.093
L439.38 347.701
L467.505 345.391
L484.978 344.048
L494.061 343.351
L502.298 341.383
L505.67 339.545
L508.771 337.604
L511.618 335.561
L514.25 333.4
L516.701 331.1
L517.862 329.895
L517.862 329.895" style="fill:none;stroke:#00bfbf;stroke-linecap:square;stroke-width:2.5;"/>
   </g>
   <g id="line2d_36">
    <path clip-path="url(#p7e0d3d5be1)" d="
M79.2225 356.04
L112.373 355.4
L236.633 353.243
L312.449 352.095
L353.565 351.684
L383.305 351.601
L412.714 351.537
L438.051 350.682
L452.45 350.408
L462.91 350.423
L469.022 350.398
L479.092 349.432
L484.789 347.969
L489.872 346.438
L491.202 345.995
L491.202 345.995" style="fill:none;stroke:#ff0000;stroke-linecap:square;stroke-width:2.5;"/>
   </g>
   <g id="line2d_37">
    <path clip-path="url(#p7e0d3d5be1)" d="
M79.2225 356.04
L102.282 355.629
L155.036 354.9
L214.037 354.298
L262.903 354.013
L303.167 353.994
L339.309 354.198
L380.008 354.444
L402.005 354.114
L419.013 354.073
L433.24 354.257
L442.879 354.352
L454.636 353.773
L463.294 352.509
L463.624 352.456
L463.624 352.456" style="fill:none;stroke:#008000;stroke-linecap:square;stroke-width:2.5;"/>
   </g>
   <g id="line2d_38">
    <path clip-path="url(#p7e0d3d5be1)" d="
M79.2225 356.04
L93.371 355.831
L125.514 355.569
L169.256 355.441
L224.63 355.513
L355.962 355.766
L370.975 355.588
L390.293 355.589
L431.054 355.671
L441.908 355.27
L446.473 354.775
L446.473 354.775" style="fill:none;stroke:#0000ff;stroke-linecap:square;stroke-width:2.5;"/>
   </g>
  </g>
 </g>
 <defs>
  <clipPath id="p7e0d3d5be1">
   <rect height="321.48" width="473.0175" x="79.2225" y="34.56"/>
  </clipPath>
 </defs>
</svg>
