<?xml version="1.0" encoding="utf-8" standalone="no"?>
<!DOCTYPE svg PUBLIC "-//W3C//DTD SVG 1.1//EN"
  "http://www.w3.org/Graphics/SVG/1.1/DTD/svg11.dtd">
<!-- Created with matplotlib (http://matplotlib.org/) -->
<svg height="432pt" version="1.1" viewBox="0 0 576 432" width="576pt" xmlns="http://www.w3.org/2000/svg" xmlns:xlink="http://www.w3.org/1999/xlink">
 <defs>
  <style type="text/css">
*{stroke-linecap:butt;stroke-linejoin:round;}
  </style>
 </defs>
 <g id="figure_1">
  <g id="patch_1">
   <path d="
M0 432
L576 432
L576 0
L0 0
z
" style="fill:#ffffff;"/>
  </g>
  <g id="axes_1">
   <g id="patch_2">
    <path d="
M100.541 356.04
L552.24 356.04
L552.24 34.56
L100.541 34.56
z
" style="fill:#ffffff;"/>
   </g>
   <g id="line2d_1">
    <path clip-path="url(#p014b2c756e)" d="
M100.541 356.04
L100.802 355.162
L101.213 354.475
L101.714 354.058
L102.375 353.809
L103.419 353.68
L105.851 353.66
L249.141 354.948
L338.869 355.368
L358.36 355.328
L358.618 354.549
L358.924 354.266
L359.39 354.17
L360.897 354.194
L382.797 354.775
L408.864 355.232
L429.799 355.414
L430.026 354.156
L430.286 353.779
L430.614 353.695
L431.433 353.802
L436.045 354.471
L439.367 354.823
L439.369 354.767
L440.478 328.166
L440.478 328.166" style="fill:none;stroke:#0000ff;stroke-linecap:square;stroke-width:2.5;"/>
   </g>
   <g id="line2d_2">
    <path clip-path="url(#p014b2c756e)" d="
M100.541 356.04
L100.933 354.381
L101.58 352.532
L102.335 351.023
L103.173 349.834
L104.097 348.904
L105.128 348.181
L106.312 347.625
L107.726 347.213
L109.504 346.936
L111.91 346.801
L115.631 346.837
L123.862 347.195
L157.31 348.709
L188.717 349.886
L223.502 350.964
L262.324 351.941
L306.075 352.814
L356.003 353.583
L358.492 353.505
L358.934 351.564
L359.427 350.34
L359.955 349.588
L360.539 349.133
L361.239 348.875
L362.193 348.775
L363.79 348.861
L369.241 349.498
L379.751 350.612
L391.412 351.62
L404.531 352.526
L419.457 353.329
L429.876 353.716
L430.259 350.657
L430.686 348.876
L431.119 347.935
L431.547 347.493
L431.992 347.341
L432.528 347.404
L433.32 347.747
L435.47 349.024
L437.831 350.273
L439.526 351.018
L439.529 350.958
L441.644 299.632
L441.644 299.632" style="fill:none;stroke:#008000;stroke-linecap:square;stroke-width:2.5;"/>
   </g>
   <g id="line2d_3">
    <path clip-path="url(#p014b2c756e)" d="
M100.541 356.04
L101.045 353.72
L101.894 350.775
L102.894 348.094
L103.996 345.761
L105.18 343.768
L106.437 342.08
L107.773 340.654
L109.196 339.458
L110.727 338.461
L112.395 337.641
L114.241 336.984
L116.322 336.484
L118.721 336.141
L121.571 335.966
L125.099 335.981
L129.771 336.236
L136.912 336.873
L183.789 341.424
L204.634 343.079
L227.191 344.643
L251.668 346.115
L278.312 347.491
L307.434 348.769
L339.43 349.948
L358.706 350.487
L359.335 347.381
L360.019 345.074
L360.735 343.401
L361.479 342.208
L362.251 341.374
L363.074 340.808
L363.984 340.452
L365.045 340.281
L366.366 340.304
L368.176 340.574
L371.223 341.285
L382.72 344.096
L390.053 345.6
L398.038 347.006
L406.773 348.316
L416.373 349.527
L426.984 350.638
L430.002 350.911
L430.01 350.814
L430.549 345.978
L431.139 342.569
L431.733 340.349
L432.305 339.005
L432.843 338.265
L433.346 337.926
L433.843 337.852
L434.388 338.004
L435.054 338.436
L435.957 339.31
L437.508 341.177
L439.822 343.956
L439.824 343.909
L442.832 269.94
L442.832 269.94" style="fill:none;stroke:#ff0000;stroke-linecap:square;stroke-width:2.5;"/>
   </g>
   <g id="line2d_4">
    <path clip-path="url(#p014b2c756e)" d="
M100.541 356.04
L101.144 353.131
L102.179 349.153
L103.405 345.313
L104.759 341.793
L106.209 338.633
L107.736 335.831
L109.333 333.357
L110.997 331.185
L112.727 329.289
L114.528 327.642
L116.41 326.22
L118.388 325.005
L120.478 323.982
L122.705 323.14
L125.1 322.474
L127.706 321.983
L130.578 321.671
L133.79 321.551
L137.457 321.641
L141.76 321.977
L147.043 322.622
L154.117 323.724
L166.927 325.989
L185.643 329.243
L200.024 331.506
L214.856 333.613
L230.667 335.632
L247.628 337.57
L265.847 339.426
L285.436 341.196
L306.531 342.876
L329.295 344.462
L353.93 345.954
L359.021 346.137
L359.841 341.875
L360.716 338.456
L361.625 335.77
L362.552 333.701
L363.491 332.128
L364.442 330.956
L365.412 330.105
L366.417 329.515
L367.482 329.146
L368.65 328.98
L369.977 329.021
L371.548 329.301
L373.523 329.89
L376.295 330.968
L392.128 337.496
L397.702 339.37
L403.682 341.144
L410.141 342.825
L417.132 344.413
L424.717 345.904
L430.186 346.848
L430.191 346.792
L430.887 340.145
L431.633 335.043
L432.382 331.376
L433.102 328.894
L433.772 327.326
L434.382 326.42
L434.932 325.972
L435.442 325.83
L435.953 325.92
L436.52 326.257
L437.194 326.933
L438.036 328.118
L439.168 330.128
L440.302 332.409
L440.315 332.118
L443.788 245.562
L444.079 238.049
L444.079 238.049" style="fill:none;stroke:#00bfbf;stroke-linecap:square;stroke-width:2.5;"/>
   </g>
   <g id="line2d_5">
    <path clip-path="url(#p014b2c756e)" d="
M100.541 356.04
L101.236 352.586
L102.443 347.632
L103.882 342.662
L105.476 337.946
L107.183 333.582
L108.983 329.584
L110.858 325.952
L112.798 322.676
L114.793 319.738
L116.839 317.116
L118.94 314.781
L121.094 312.717
L123.306 310.904
L125.581 309.324
L127.932 307.963
L130.368 306.808
L132.908 305.851
L135.57 305.087
L138.377 304.514
L141.36 304.133
L144.557 303.952
L148.016 303.983
L151.806 304.242
L156.023 304.758
L160.826 305.575
L166.499 306.773
L173.683 308.531
L184.962 311.549
L204.484 316.762
L216.211 319.644
L227.641 322.222
L239.441 324.654
L251.908 326.994
L265.202 329.261
L279.417 331.457
L294.619 333.578
L310.876 335.619
L328.271 337.577
L346.902 339.448
L359.419 340.534
L360.43 335.09
L361.497 330.525
L362.594 326.776
L363.707 323.738
L364.823 321.321
L365.934 319.426
L367.038 317.968
L368.14 316.872
L369.246 316.079
L370.371 315.543
L371.536 315.232
L372.773 315.134
L374.121 315.254
L375.629 315.617
L377.371 316.273
L379.47 317.312
L382.208 318.932
L386.898 322.009
L393.402 326.216
L397.906 328.853
L402.332 331.187
L406.94 333.363
L411.844 335.431
L417.106 337.407
L422.763 339.291
L428.852 341.082
L430.428 341.507
L430.437 341.414
L431.289 332.975
L432.19 326.188
L433.086 321.038
L433.946 317.326
L434.745 314.8
L435.469 313.196
L436.114 312.265
L436.684 311.804
L437.2 311.659
L437.701 311.749
L438.24 312.083
L438.858 312.745
L439.591 313.878
L440.482 315.694
L440.945 316.795
L440.957 316.527
L444.42 229.21
L445.411 203.185
L445.411 203.185" style="fill:none;stroke:#bf00bf;stroke-linecap:square;stroke-width:2.5;"/>
   </g>
   <g id="line2d_6">
    <path clip-path="url(#p014b2c756e)" d="
M100.541 356.04
L101.323 352.069
L102.692 346.19
L104.333 340.117
L106.158 334.214
L108.117 328.619
L110.183 323.386
L112.335 318.532
L114.555 314.068
L116.833 309.983
L119.158 306.264
L121.525 302.892
L123.929 299.851
L126.365 297.124
L128.837 294.687
L131.345 292.525
L133.891 290.621
L136.481 288.961
L139.123 287.531
L141.825 286.32
L144.595 285.323
L147.45 284.531
L150.408 283.942
L153.484 283.558
L156.704 283.381
L160.097 283.419
L163.695 283.684
L167.547 284.195
L171.715 284.974
L176.296 286.062
L181.433 287.515
L187.403 289.443
L194.825 292.085
L206.408 296.477
L223.499 302.924
L233.712 306.525
L243.234 309.648
L252.709 312.521
L262.449 315.24
L272.655 317.857
L283.474 320.398
L295.003 322.877
L307.307 325.292
L320.435 327.64
L334.433 329.915
L349.356 332.114
L359.92 333.501
L361.127 326.855
L362.387 321.127
L363.674 316.286
L364.97 312.25
L366.262 308.934
L367.538 306.249
L368.796 304.104
L370.029 302.429
L371.24 301.148
L372.433 300.203
L373.617 299.544
L374.808 299.131
L376.031 298.943
L377.307 298.973
L378.67 299.23
L380.157 299.743
L381.817 300.556
L383.714 301.742
L385.965 303.423
L388.831 305.858
L393.511 310.171
L399.912 316.009
L403.973 319.4
L407.786 322.297
L411.61 324.923
L415.578 327.377
L419.776 329.71
L424.258 331.945
L429.059 334.089
L430.731 334.781
L430.741 334.679
L431.754 324.413
L432.807 315.935
L433.847 309.283
L434.838 304.315
L435.756 300.783
L436.589 298.404
L437.332 296.91
L437.98 296.066
L438.545 295.669
L439.051 295.571
L439.543 295.704
L440.072 296.087
L440.674 296.815
L441.376 298.036
L441.682 298.687
L441.692 298.433
L445.143 210.249
L446.812 165.534
L446.812 165.534" style="fill:none;stroke:#bfbf00;stroke-linecap:square;stroke-width:2.5;"/>
   </g>
   <g id="line2d_7">
    <path clip-path="url(#p014b2c756e)" d="
M100.541 356.04
L101.404 351.588
L102.93 344.806
L104.768 337.649
L106.82 330.553
L109.029 323.708
L111.357 317.212
L113.786 311.087
L116.289 305.373
L118.854 300.065
L121.468 295.16
L124.122 290.649
L126.802 286.526
L129.509 282.766
L132.231 279.361
L134.968 276.29
L137.718 273.533
L140.483 271.075
L143.261 268.9
L146.056 266.99
L148.875 265.332
L151.721 263.915
L154.605 262.726
L157.531 261.761
L160.513 261.01
L163.562 260.472
L166.692 260.146
L169.922 260.034
L173.271 260.142
L176.762 260.478
L180.424 261.057
L184.288 261.895
L188.407 263.019
L192.844 264.464
L197.696 266.282
L203.127 268.56
L209.44 271.459
L217.422 275.381
L234 283.857
L245.2 289.426
L254.069 293.59
L262.3 297.211
L270.355 300.512
L278.477 303.599
L286.839 306.539
L295.577 309.373
L304.803 312.13
L314.608 314.826
L325.062 317.468
L336.212 320.053
L348.091 322.578
L360.52 324.995
L361.925 317.126
L363.38 310.212
L364.859 304.245
L366.339 299.17
L367.806 294.913
L369.252 291.383
L370.665 288.504
L372.036 286.197
L373.368 284.379
L374.659 282.982
L375.914 281.942
L377.145 281.205
L378.361 280.732
L379.583 280.494
L380.831 280.479
L382.129 280.687
L383.507 281.137
L384.994 281.862
L386.626 282.912
L388.449 284.358
L390.535 286.306
L393.008 288.935
L396.197 292.669
L402.951 301.037
L407.57 306.538
L411.242 310.569
L414.667 314.003
L418.043 317.075
L421.483 319.905
L425.066 322.563
L428.853 325.095
L431.103 326.481
L431.111 326.4
L432.285 314.315
L433.487 304.165
L434.665 296.028
L435.783 289.793
L436.815 285.229
L437.75 282.045
L438.58 279.956
L439.305 278.688
L439.931 278.007
L440.473 277.724
L440.964 277.71
L441.453 277.924
L441.99 278.417
L442.468 279.081
L442.478 278.843
L445.916 189.715
L448.261 125.566
L448.261 125.566" style="fill:none;stroke:#000000;stroke-linecap:square;stroke-width:2.5;"/>
   </g>
   <g id="line2d_8">
    <path clip-path="url(#p014b2c756e)" d="
M100.541 356.04
L101.483 351.118
L103.158 343.473
L105.184 335.264
L107.453 326.994
L109.903 318.901
L112.495 311.102
L115.196 303.672
L117.988 296.638
L120.851 290.024
L123.765 283.848
L126.717 278.107
L129.693 272.799
L132.688 267.909
L135.688 263.431
L138.692 259.341
L141.694 255.626
L144.688 252.271
L147.678 249.251
L150.66 246.553
L153.632 244.161
L156.6 242.055
L159.564 240.224
L162.529 238.651
L165.502 237.324
L168.493 236.232
L171.503 235.369
L174.548 234.727
L177.639 234.303
L180.787 234.096
L184.003 234.108
L187.303 234.343
L190.708 234.81
L194.24 235.521
L197.918 236.491
L201.775 237.74
L205.846 239.295
L210.188 241.195
L214.873 243.492
L220.019 246.267
L225.834 249.663
L232.762 253.976
L242.363 260.24
L261.842 272.992
L270.206 278.161
L277.704 282.537
L284.848 286.45
L291.875 290.046
L298.939 293.412
L306.166 296.608
L313.658 299.677
L321.516 302.654
L329.824 305.562
L338.662 308.418
L348.082 311.225
L358.127 313.986
L361.241 314.78
L361.254 314.698
L362.861 305.602
L364.512 297.507
L366.18 290.419
L367.841 284.306
L369.482 279.092
L371.089 274.707
L372.653 271.066
L374.167 268.092
L375.625 265.703
L377.025 263.823
L378.371 262.377
L379.668 261.301
L380.925 260.541
L382.154 260.053
L383.372 259.806
L384.601 259.784
L385.86 259.985
L387.176 260.425
L388.574 261.13
L390.08 262.146
L391.722 263.531
L393.537 265.361
L395.575 267.744
L397.924 270.847
L400.769 274.991
L404.736 281.202
L413.352 294.776
L416.927 299.926
L420.149 304.186
L423.24 307.907
L426.309 311.257
L429.432 314.338
L431.558 316.264
L431.564 316.211
L432.903 302.298
L434.256 290.488
L435.565 280.936
L436.798 273.505
L437.933 267.954
L438.958 263.994
L439.865 261.317
L440.66 259.618
L441.344 258.64
L441.927 258.165
L442.435 258.021
L442.91 258.116
L443.287 258.349
L443.295 258.176
L446.72 168.045
L449.739 83.6051
L449.739 83.6051" style="fill:none;stroke:#0000ff;stroke-linecap:square;stroke-width:2.5;"/>
   </g>
   <g id="line2d_9">
    <path clip-path="url(#p014b2c756e)" d="
M100.541 356.04
L101.558 350.67
L103.379 342.178
L105.595 332.908
L108.084 323.448
L110.777 314.087
L113.63 304.971
L116.613 296.177
L119.691 287.79
L122.849 279.826
L126.064 272.314
L129.322 265.262
L132.601 258.689
L135.893 252.582
L139.191 246.928
L142.48 241.725
L145.753 236.958
L149.01 232.604
L152.243 228.648
L155.446 225.078
L158.624 221.864
L161.771 218.995
L164.887 216.452
L167.979 214.213
L171.046 212.265
L174.095 210.589
L177.126 209.175
L180.152 208.007
L183.18 207.076
L186.215 206.374
L189.27 205.896
L192.352 205.638
L195.472 205.6
L198.65 205.785
L201.89 206.196
L205.211 206.844
L208.63 207.739
L212.164 208.895
L215.837 210.333
L219.677 212.078
L223.718 214.161
L228.004 216.626
L232.599 219.528
L237.603 222.957
L243.188 227.06
L249.695 232.126
L258.14 239.003
L282.078 258.654
L289.563 264.413
L296.335 269.346
L302.763 273.756
L309.034 277.79
L315.271 281.539
L321.578 285.069
L328.04 288.432
L334.737 291.666
L341.75 294.804
L349.156 297.872
L357.022 300.888
L362.081 302.711
L362.091 302.661
L363.911 292.26
L365.765 282.934
L367.621 274.708
L369.465 267.526
L371.275 261.345
L373.043 256.083
L374.752 251.672
L376.399 248.02
L377.979 245.041
L379.489 242.655
L380.928 240.783
L382.303 239.348
L383.618 238.288
L384.884 237.546
L386.111 237.081
L387.318 236.858
L388.527 236.861
L389.757 237.088
L391.031 237.552
L392.374 238.282
L393.807 239.322
L395.35 240.724
L397.027 242.559
L398.87 244.915
L400.921 247.911
L403.25 251.721
L405.998 256.663
L409.561 263.56
L421.021 286.087
L424.282 291.811
L427.268 296.611
L430.128 300.794
L432.122 303.474
L432.129 303.422
L433.636 287.729
L435.135 274.37
L436.57 263.503
L437.911 254.973
L439.135 248.551
L440.235 243.903
L441.21 240.689
L442.059 238.605
L442.79 237.354
L443.41 236.7
L443.938 236.442
L444.146 236.306
L447.559 145.062
L450.916 49.3128
L451.24 39.7514
L451.24 39.7514" style="fill:none;stroke:#008000;stroke-linecap:square;stroke-width:2.5;"/>
   </g>
   <g id="matplotlib.axis_1">
    <g id="xtick_1">
     <g id="line2d_10">
      <defs>
       <path d="
M0 0
L0 -4" id="m93b0483c22" style="stroke:#000000;stroke-width:0.5;"/>
      </defs>
      <g>
       <use style="stroke:#000000;stroke-width:0.5;" x="100.54125" xlink:href="#m93b0483c22" y="356.04"/>
      </g>
     </g>
     <g id="line2d_11">
      <defs>
       <path d="
M0 0
L0 4" id="m741efc42ff" style="stroke:#000000;stroke-width:0.5;"/>
      </defs>
      <g>
       <use style="stroke:#000000;stroke-width:0.5;" x="100.54125" xlink:href="#m741efc42ff" y="34.56"/>
      </g>
     </g>
     <g id="text_1">
      <!-- 0 -->
      <defs>
       <path d="
M31.7812 66.4062
Q24.1719 66.4062 20.3281 58.9062
Q16.5 51.4219 16.5 36.375
Q16.5 21.3906 20.3281 13.8906
Q24.1719 6.39062 31.7812 6.39062
Q39.4531 6.39062 43.2812 13.8906
Q47.125 21.3906 47.125 36.375
Q47.125 51.4219 43.2812 58.9062
Q39.4531 66.4062 31.7812 66.4062
M31.7812 74.2188
Q44.0469 74.2188 50.5156 64.5156
Q56.9844 54.8281 56.9844 36.375
Q56.9844 17.9688 50.5156 8.26562
Q44.0469 -1.42188 31.7812 -1.42188
Q19.5312 -1.42188 13.0625 8.26562
Q6.59375 17.9688 6.59375 36.375
Q6.59375 54.8281 13.0625 64.5156
Q19.5312 74.2188 31.7812 74.2188" id="DejaVuSans-30"/>
      </defs>
      <g transform="translate(94.99828125 376.7565625)scale(0.22 -0.22)">
       <use xlink:href="#DejaVuSans-30"/>
      </g>
     </g>
    </g>
    <g id="xtick_2">
     <g id="line2d_12">
      <g>
       <use style="stroke:#000000;stroke-width:0.5;" x="171.119179688" xlink:href="#m93b0483c22" y="356.04"/>
      </g>
     </g>
     <g id="line2d_13">
      <g>
       <use style="stroke:#000000;stroke-width:0.5;" x="171.119179688" xlink:href="#m741efc42ff" y="34.56"/>
      </g>
     </g>
     <g id="text_2">
      <!-- 5 -->
      <defs>
       <path d="
M10.7969 72.9062
L49.5156 72.9062
L49.5156 64.5938
L19.8281 64.5938
L19.8281 46.7344
Q21.9688 47.4688 24.1094 47.8281
Q26.2656 48.1875 28.4219 48.1875
Q40.625 48.1875 47.75 41.5
Q54.8906 34.8125 54.8906 23.3906
Q54.8906 11.625 47.5625 5.09375
Q40.2344 -1.42188 26.9062 -1.42188
Q22.3125 -1.42188 17.5469 -0.640625
Q12.7969 0.140625 7.71875 1.70312
L7.71875 11.625
Q12.1094 9.23438 16.7969 8.0625
Q21.4844 6.89062 26.7031 6.89062
Q35.1562 6.89062 40.0781 11.3281
Q45.0156 15.7656 45.0156 23.3906
Q45.0156 31 40.0781 35.4375
Q35.1562 39.8906 26.7031 39.8906
Q22.75 39.8906 18.8125 39.0156
Q14.8906 38.1406 10.7969 36.2812
z
" id="DejaVuSans-35"/>
      </defs>
      <g transform="translate(165.930273438 376.7565625)scale(0.22 -0.22)">
       <use xlink:href="#DejaVuSans-35"/>
      </g>
     </g>
    </g>
    <g id="xtick_3">
     <g id="line2d_14">
      <g>
       <use style="stroke:#000000;stroke-width:0.5;" x="241.697109375" xlink:href="#m93b0483c22" y="356.04"/>
      </g>
     </g>
     <g id="line2d_15">
      <g>
       <use style="stroke:#000000;stroke-width:0.5;" x="241.697109375" xlink:href="#m741efc42ff" y="34.56"/>
      </g>
     </g>
     <g id="text_3">
      <!-- 10 -->
      <defs>
       <path d="
M12.4062 8.29688
L28.5156 8.29688
L28.5156 63.9219
L10.9844 60.4062
L10.9844 69.3906
L28.4219 72.9062
L38.2812 72.9062
L38.2812 8.29688
L54.3906 8.29688
L54.3906 0
L12.4062 0
z
" id="DejaVuSans-31"/>
      </defs>
      <g transform="translate(229.638359375 376.7565625)scale(0.22 -0.22)">
       <use xlink:href="#DejaVuSans-31"/>
       <use x="63.623046875" xlink:href="#DejaVuSans-30"/>
      </g>
     </g>
    </g>
    <g id="xtick_4">
     <g id="line2d_16">
      <g>
       <use style="stroke:#000000;stroke-width:0.5;" x="312.275039063" xlink:href="#m93b0483c22" y="356.04"/>
      </g>
     </g>
     <g id="line2d_17">
      <g>
       <use style="stroke:#000000;stroke-width:0.5;" x="312.275039063" xlink:href="#m741efc42ff" y="34.56"/>
      </g>
     </g>
     <g id="text_4">
      <!-- 15 -->
      <g transform="translate(300.446601563 376.7565625)scale(0.22 -0.22)">
       <use xlink:href="#DejaVuSans-31"/>
       <use x="63.623046875" xlink:href="#DejaVuSans-35"/>
      </g>
     </g>
    </g>
    <g id="xtick_5">
     <g id="line2d_18">
      <g>
       <use style="stroke:#000000;stroke-width:0.5;" x="382.85296875" xlink:href="#m93b0483c22" y="356.04"/>
      </g>
     </g>
     <g id="line2d_19">
      <g>
       <use style="stroke:#000000;stroke-width:0.5;" x="382.85296875" xlink:href="#m741efc42ff" y="34.56"/>
      </g>
     </g>
     <g id="text_5">
      <!-- 20 -->
      <defs>
       <path d="
M19.1875 8.29688
L53.6094 8.29688
L53.6094 0
L7.32812 0
L7.32812 8.29688
Q12.9375 14.1094 22.625 23.8906
Q32.3281 33.6875 34.8125 36.5312
Q39.5469 41.8438 41.4219 45.5312
Q43.3125 49.2188 43.3125 52.7812
Q43.3125 58.5938 39.2344 62.25
Q35.1562 65.9219 28.6094 65.9219
Q23.9688 65.9219 18.8125 64.3125
Q13.6719 62.7031 7.8125 59.4219
L7.8125 69.3906
Q13.7656 71.7812 18.9375 73
Q24.125 74.2188 28.4219 74.2188
Q39.75 74.2188 46.4844 68.5469
Q53.2188 62.8906 53.2188 53.4219
Q53.2188 48.9219 51.5312 44.8906
Q49.8594 40.875 45.4062 35.4062
Q44.1875 33.9844 37.6406 27.2188
Q31.1094 20.4531 19.1875 8.29688" id="DejaVuSans-32"/>
      </defs>
      <g transform="translate(370.39203125 376.7565625)scale(0.22 -0.22)">
       <use xlink:href="#DejaVuSans-32"/>
       <use x="63.623046875" xlink:href="#DejaVuSans-30"/>
      </g>
     </g>
    </g>
    <g id="xtick_6">
     <g id="line2d_20">
      <g>
       <use style="stroke:#000000;stroke-width:0.5;" x="453.430898437" xlink:href="#m93b0483c22" y="356.04"/>
      </g>
     </g>
     <g id="line2d_21">
      <g>
       <use style="stroke:#000000;stroke-width:0.5;" x="453.430898437" xlink:href="#m741efc42ff" y="34.56"/>
      </g>
     </g>
     <g id="text_6">
      <!-- 25 -->
      <g transform="translate(441.200273438 376.7565625)scale(0.22 -0.22)">
       <use xlink:href="#DejaVuSans-32"/>
       <use x="63.623046875" xlink:href="#DejaVuSans-35"/>
      </g>
     </g>
    </g>
    <g id="xtick_7">
     <g id="line2d_22">
      <g>
       <use style="stroke:#000000;stroke-width:0.5;" x="524.008828125" xlink:href="#m93b0483c22" y="356.04"/>
      </g>
     </g>
     <g id="line2d_23">
      <g>
       <use style="stroke:#000000;stroke-width:0.5;" x="524.008828125" xlink:href="#m741efc42ff" y="34.56"/>
      </g>
     </g>
     <g id="text_7">
      <!-- 30 -->
      <defs>
       <path d="
M40.5781 39.3125
Q47.6562 37.7969 51.625 33
Q55.6094 28.2188 55.6094 21.1875
Q55.6094 10.4062 48.1875 4.48438
Q40.7656 -1.42188 27.0938 -1.42188
Q22.5156 -1.42188 17.6562 -0.515625
Q12.7969 0.390625 7.625 2.20312
L7.625 11.7188
Q11.7188 9.32812 16.5938 8.10938
Q21.4844 6.89062 26.8125 6.89062
Q36.0781 6.89062 40.9375 10.5469
Q45.7969 14.2031 45.7969 21.1875
Q45.7969 27.6406 41.2812 31.2656
Q36.7656 34.9062 28.7188 34.9062
L20.2188 34.9062
L20.2188 43.0156
L29.1094 43.0156
Q36.375 43.0156 40.2344 45.9219
Q44.0938 48.8281 44.0938 54.2969
Q44.0938 59.9062 40.1094 62.9062
Q36.1406 65.9219 28.7188 65.9219
Q24.6562 65.9219 20.0156 65.0312
Q15.375 64.1562 9.8125 62.3125
L9.8125 71.0938
Q15.4375 72.6562 20.3438 73.4375
Q25.25 74.2188 29.5938 74.2188
Q40.8281 74.2188 47.3594 69.1094
Q53.9062 64.0156 53.9062 55.3281
Q53.9062 49.2656 50.4375 45.0938
Q46.9688 40.9219 40.5781 39.3125" id="DejaVuSans-33"/>
      </defs>
      <g transform="translate(511.580546875 376.7565625)scale(0.22 -0.22)">
       <use xlink:href="#DejaVuSans-33"/>
       <use x="63.623046875" xlink:href="#DejaVuSans-30"/>
      </g>
     </g>
    </g>
    <g id="text_8">
     <!-- Depth (cm) -->
     <defs>
      <path d="
M8.01562 75.875
L15.8281 75.875
Q23.1406 64.3594 26.7812 53.3125
Q30.4219 42.2812 30.4219 31.3906
Q30.4219 20.4531 26.7812 9.375
Q23.1406 -1.70312 15.8281 -13.1875
L8.01562 -13.1875
Q14.5 -2 17.7031 9.0625
Q20.9062 20.125 20.9062 31.3906
Q20.9062 42.6719 17.7031 53.6562
Q14.5 64.6562 8.01562 75.875" id="DejaVuSans-29"/>
      <path d="
M52 44.1875
Q55.375 50.25 60.0625 53.125
Q64.75 56 71.0938 56
Q79.6406 56 84.2812 50.0156
Q88.9219 44.0469 88.9219 33.0156
L88.9219 0
L79.8906 0
L79.8906 32.7188
Q79.8906 40.5781 77.0938 44.375
Q74.3125 48.1875 68.6094 48.1875
Q61.625 48.1875 57.5625 43.5469
Q53.5156 38.9219 53.5156 30.9062
L53.5156 0
L44.4844 0
L44.4844 32.7188
Q44.4844 40.625 41.7031 44.4062
Q38.9219 48.1875 33.1094 48.1875
Q26.2188 48.1875 22.1562 43.5312
Q18.1094 38.875 18.1094 30.9062
L18.1094 0
L9.07812 0
L9.07812 54.6875
L18.1094 54.6875
L18.1094 46.1875
Q21.1875 51.2188 25.4844 53.6094
Q29.7812 56 35.6875 56
Q41.6562 56 45.8281 52.9688
Q50 49.9531 52 44.1875" id="DejaVuSans-6d"/>
      <path d="
M48.7812 52.5938
L48.7812 44.1875
Q44.9688 46.2969 41.1406 47.3438
Q37.3125 48.3906 33.4062 48.3906
Q24.6562 48.3906 19.8125 42.8438
Q14.9844 37.3125 14.9844 27.2969
Q14.9844 17.2812 19.8125 11.7344
Q24.6562 6.20312 33.4062 6.20312
Q37.3125 6.20312 41.1406 7.25
Q44.9688 8.29688 48.7812 10.4062
L48.7812 2.09375
Q45.0156 0.34375 40.9844 -0.53125
Q36.9688 -1.42188 32.4219 -1.42188
Q20.0625 -1.42188 12.7812 6.34375
Q5.51562 14.1094 5.51562 27.2969
Q5.51562 40.6719 12.8594 48.3281
Q20.2188 56 33.0156 56
Q37.1562 56 41.1094 55.1406
Q45.0625 54.2969 48.7812 52.5938" id="DejaVuSans-63"/>
      <path d="
M19.6719 64.7969
L19.6719 8.10938
L31.5938 8.10938
Q46.6875 8.10938 53.6875 14.9375
Q60.6875 21.7812 60.6875 36.5312
Q60.6875 51.1719 53.6875 57.9844
Q46.6875 64.7969 31.5938 64.7969
z

M9.8125 72.9062
L30.0781 72.9062
Q51.2656 72.9062 61.1719 64.0938
Q71.0938 55.2812 71.0938 36.5312
Q71.0938 17.6719 61.125 8.82812
Q51.1719 0 30.0781 0
L9.8125 0
z
" id="DejaVuSans-44"/>
      <path id="DejaVuSans-20"/>
      <path d="
M54.8906 33.0156
L54.8906 0
L45.9062 0
L45.9062 32.7188
Q45.9062 40.4844 42.875 44.3281
Q39.8438 48.1875 33.7969 48.1875
Q26.5156 48.1875 22.3125 43.5469
Q18.1094 38.9219 18.1094 30.9062
L18.1094 0
L9.07812 0
L9.07812 75.9844
L18.1094 75.9844
L18.1094 46.1875
Q21.3438 51.125 25.7031 53.5625
Q30.0781 56 35.7969 56
Q45.2188 56 50.0469 50.1719
Q54.8906 44.3438 54.8906 33.0156" id="DejaVuSans-68"/>
      <path d="
M18.3125 70.2188
L18.3125 54.6875
L36.8125 54.6875
L36.8125 47.7031
L18.3125 47.7031
L18.3125 18.0156
Q18.3125 11.3281 20.1406 9.42188
Q21.9688 7.51562 27.5938 7.51562
L36.8125 7.51562
L36.8125 0
L27.5938 0
Q17.1875 0 13.2344 3.875
Q9.28125 7.76562 9.28125 18.0156
L9.28125 47.7031
L2.6875 47.7031
L2.6875 54.6875
L9.28125 54.6875
L9.28125 70.2188
z
" id="DejaVuSans-74"/>
      <path d="
M31 75.875
Q24.4688 64.6562 21.2812 53.6562
Q18.1094 42.6719 18.1094 31.3906
Q18.1094 20.125 21.3125 9.0625
Q24.5156 -2 31 -13.1875
L23.1875 -13.1875
Q15.875 -1.70312 12.2344 9.375
Q8.59375 20.4531 8.59375 31.3906
Q8.59375 42.2812 12.2031 53.3125
Q15.8281 64.3594 23.1875 75.875
z
" id="DejaVuSans-28"/>
      <path d="
M56.2031 29.5938
L56.2031 25.2031
L14.8906 25.2031
Q15.4844 15.9219 20.4844 11.0625
Q25.4844 6.20312 34.4219 6.20312
Q39.5938 6.20312 44.4531 7.46875
Q49.3125 8.73438 54.1094 11.2812
L54.1094 2.78125
Q49.2656 0.734375 44.1875 -0.34375
Q39.1094 -1.42188 33.8906 -1.42188
Q20.7969 -1.42188 13.1562 6.1875
Q5.51562 13.8125 5.51562 26.8125
Q5.51562 40.2344 12.7656 48.1094
Q20.0156 56 32.3281 56
Q43.3594 56 49.7812 48.8906
Q56.2031 41.7969 56.2031 29.5938
M47.2188 32.2344
Q47.125 39.5938 43.0938 43.9844
Q39.0625 48.3906 32.4219 48.3906
Q24.9062 48.3906 20.3906 44.1406
Q15.875 39.8906 15.1875 32.1719
z
" id="DejaVuSans-65"/>
      <path d="
M18.1094 8.20312
L18.1094 -20.7969
L9.07812 -20.7969
L9.07812 54.6875
L18.1094 54.6875
L18.1094 46.3906
Q20.9531 51.2656 25.2656 53.625
Q29.5938 56 35.5938 56
Q45.5625 56 51.7812 48.0938
Q58.0156 40.1875 58.0156 27.2969
Q58.0156 14.4062 51.7812 6.48438
Q45.5625 -1.42188 35.5938 -1.42188
Q29.5938 -1.42188 25.2656 0.953125
Q20.9531 3.32812 18.1094 8.20312
M48.6875 27.2969
Q48.6875 37.2031 44.6094 42.8438
Q40.5312 48.4844 33.4062 48.4844
Q26.2656 48.4844 22.1875 42.8438
Q18.1094 37.2031 18.1094 27.2969
Q18.1094 17.3906 22.1875 11.75
Q26.2656 6.10938 33.4062 6.10938
Q40.5312 6.10938 44.6094 11.75
Q48.6875 17.3906 48.6875 27.2969" id="DejaVuSans-70"/>
     </defs>
     <g transform="translate(264.98828125 403.0484375)scale(0.22 -0.22)">
      <use xlink:href="#DejaVuSans-44"/>
      <use x="77.001953125" xlink:href="#DejaVuSans-65"/>
      <use x="138.525390625" xlink:href="#DejaVuSans-70"/>
      <use x="202.001953125" xlink:href="#DejaVuSans-74"/>
      <use x="241.2109375" xlink:href="#DejaVuSans-68"/>
      <use x="304.58984375" xlink:href="#DejaVuSans-20"/>
      <use x="336.376953125" xlink:href="#DejaVuSans-28"/>
      <use x="375.390625" xlink:href="#DejaVuSans-63"/>
      <use x="430.37109375" xlink:href="#DejaVuSans-6d"/>
      <use x="527.783203125" xlink:href="#DejaVuSans-29"/>
     </g>
    </g>
   </g>
   <g id="matplotlib.axis_2">
    <g id="ytick_1">
     <g id="line2d_24">
      <defs>
       <path d="
M0 0
L4 0" id="m728421d6d4" style="stroke:#000000;stroke-width:0.5;"/>
      </defs>
      <g>
       <use style="stroke:#000000;stroke-width:0.5;" x="100.54125" xlink:href="#m728421d6d4" y="356.04"/>
      </g>
     </g>
     <g id="line2d_25">
      <defs>
       <path d="
M0 0
L-4 0" id="mcb0005524f" style="stroke:#000000;stroke-width:0.5;"/>
      </defs>
      <g>
       <use style="stroke:#000000;stroke-width:0.5;" x="552.24" xlink:href="#mcb0005524f" y="356.04"/>
      </g>
     </g>
     <g id="text_9">
      <!-- 0.00 -->
      <defs>
       <path d="
M10.6875 12.4062
L21 12.4062
L21 0
L10.6875 0
z
" id="DejaVuSans-2e"/>
      </defs>
      <g transform="translate(50.4684375 362.110625)scale(0.22 -0.22)">
       <use xlink:href="#DejaVuSans-30"/>
       <use x="63.623046875" xlink:href="#DejaVuSans-2e"/>
       <use x="95.41015625" xlink:href="#DejaVuSans-30"/>
       <use x="159.033203125" xlink:href="#DejaVuSans-30"/>
      </g>
     </g>
    </g>
    <g id="ytick_2">
     <g id="line2d_26">
      <g>
       <use style="stroke:#000000;stroke-width:0.5;" x="100.54125" xlink:href="#m728421d6d4" y="302.46"/>
      </g>
     </g>
     <g id="line2d_27">
      <g>
       <use style="stroke:#000000;stroke-width:0.5;" x="552.24" xlink:href="#mcb0005524f" y="302.46"/>
      </g>
     </g>
     <g id="text_10">
      <!-- 0.02 -->
      <g transform="translate(51.2109375 308.530625)scale(0.22 -0.22)">
       <use xlink:href="#DejaVuSans-30"/>
       <use x="63.623046875" xlink:href="#DejaVuSans-2e"/>
       <use x="95.41015625" xlink:href="#DejaVuSans-30"/>
       <use x="159.033203125" xlink:href="#DejaVuSans-32"/>
      </g>
     </g>
    </g>
    <g id="ytick_3">
     <g id="line2d_28">
      <g>
       <use style="stroke:#000000;stroke-width:0.5;" x="100.54125" xlink:href="#m728421d6d4" y="248.88"/>
      </g>
     </g>
     <g id="line2d_29">
      <g>
       <use style="stroke:#000000;stroke-width:0.5;" x="552.24" xlink:href="#mcb0005524f" y="248.88"/>
      </g>
     </g>
     <g id="text_11">
      <!-- 0.04 -->
      <defs>
       <path d="
M37.7969 64.3125
L12.8906 25.3906
L37.7969 25.3906
z

M35.2031 72.9062
L47.6094 72.9062
L47.6094 25.3906
L58.0156 25.3906
L58.0156 17.1875
L47.6094 17.1875
L47.6094 0
L37.7969 0
L37.7969 17.1875
L4.89062 17.1875
L4.89062 26.7031
z
" id="DejaVuSans-34"/>
      </defs>
      <g transform="translate(50.2415625 254.950625)scale(0.22 -0.22)">
       <use xlink:href="#DejaVuSans-30"/>
       <use x="63.623046875" xlink:href="#DejaVuSans-2e"/>
       <use x="95.41015625" xlink:href="#DejaVuSans-30"/>
       <use x="159.033203125" xlink:href="#DejaVuSans-34"/>
      </g>
     </g>
    </g>
    <g id="ytick_4">
     <g id="line2d_30">
      <g>
       <use style="stroke:#000000;stroke-width:0.5;" x="100.54125" xlink:href="#m728421d6d4" y="195.3"/>
      </g>
     </g>
     <g id="line2d_31">
      <g>
       <use style="stroke:#000000;stroke-width:0.5;" x="552.24" xlink:href="#mcb0005524f" y="195.3"/>
      </g>
     </g>
     <g id="text_12">
      <!-- 0.06 -->
      <defs>
       <path d="
M33.0156 40.375
Q26.375 40.375 22.4844 35.8281
Q18.6094 31.2969 18.6094 23.3906
Q18.6094 15.5312 22.4844 10.9531
Q26.375 6.39062 33.0156 6.39062
Q39.6562 6.39062 43.5312 10.9531
Q47.4062 15.5312 47.4062 23.3906
Q47.4062 31.2969 43.5312 35.8281
Q39.6562 40.375 33.0156 40.375
M52.5938 71.2969
L52.5938 62.3125
Q48.875 64.0625 45.0938 64.9844
Q41.3125 65.9219 37.5938 65.9219
Q27.8281 65.9219 22.6719 59.3281
Q17.5312 52.7344 16.7969 39.4062
Q19.6719 43.6562 24.0156 45.9219
Q28.375 48.1875 33.5938 48.1875
Q44.5781 48.1875 50.9531 41.5156
Q57.3281 34.8594 57.3281 23.3906
Q57.3281 12.1562 50.6875 5.35938
Q44.0469 -1.42188 33.0156 -1.42188
Q20.3594 -1.42188 13.6719 8.26562
Q6.98438 17.9688 6.98438 36.375
Q6.98438 53.6562 15.1875 63.9375
Q23.3906 74.2188 37.2031 74.2188
Q40.9219 74.2188 44.7031 73.4844
Q48.4844 72.75 52.5938 71.2969" id="DejaVuSans-36"/>
      </defs>
      <g transform="translate(50.3928125 201.370625)scale(0.22 -0.22)">
       <use xlink:href="#DejaVuSans-30"/>
       <use x="63.623046875" xlink:href="#DejaVuSans-2e"/>
       <use x="95.41015625" xlink:href="#DejaVuSans-30"/>
       <use x="159.033203125" xlink:href="#DejaVuSans-36"/>
      </g>
     </g>
    </g>
    <g id="ytick_5">
     <g id="line2d_32">
      <g>
       <use style="stroke:#000000;stroke-width:0.5;" x="100.54125" xlink:href="#m728421d6d4" y="141.72"/>
      </g>
     </g>
     <g id="line2d_33">
      <g>
       <use style="stroke:#000000;stroke-width:0.5;" x="552.24" xlink:href="#mcb0005524f" y="141.72"/>
      </g>
     </g>
     <g id="text_13">
      <!-- 0.08 -->
      <defs>
       <path d="
M31.7812 34.625
Q24.75 34.625 20.7188 30.8594
Q16.7031 27.0938 16.7031 20.5156
Q16.7031 13.9219 20.7188 10.1562
Q24.75 6.39062 31.7812 6.39062
Q38.8125 6.39062 42.8594 10.1719
Q46.9219 13.9688 46.9219 20.5156
Q46.9219 27.0938 42.8906 30.8594
Q38.875 34.625 31.7812 34.625
M21.9219 38.8125
Q15.5781 40.375 12.0312 44.7188
Q8.5 49.0781 8.5 55.3281
Q8.5 64.0625 14.7188 69.1406
Q20.9531 74.2188 31.7812 74.2188
Q42.6719 74.2188 48.875 69.1406
Q55.0781 64.0625 55.0781 55.3281
Q55.0781 49.0781 51.5312 44.7188
Q48 40.375 41.7031 38.8125
Q48.8281 37.1562 52.7969 32.3125
Q56.7812 27.4844 56.7812 20.5156
Q56.7812 9.90625 50.3125 4.23438
Q43.8438 -1.42188 31.7812 -1.42188
Q19.7344 -1.42188 13.25 4.23438
Q6.78125 9.90625 6.78125 20.5156
Q6.78125 27.4844 10.7812 32.3125
Q14.7969 37.1562 21.9219 38.8125
M18.3125 54.3906
Q18.3125 48.7344 21.8438 45.5625
Q25.3906 42.3906 31.7812 42.3906
Q38.1406 42.3906 41.7188 45.5625
Q45.3125 48.7344 45.3125 54.3906
Q45.3125 60.0625 41.7188 63.2344
Q38.1406 66.4062 31.7812 66.4062
Q25.3906 66.4062 21.8438 63.2344
Q18.3125 60.0625 18.3125 54.3906" id="DejaVuSans-38"/>
      </defs>
      <g transform="translate(50.513125 147.790625)scale(0.22 -0.22)">
       <use xlink:href="#DejaVuSans-30"/>
       <use x="63.623046875" xlink:href="#DejaVuSans-2e"/>
       <use x="95.41015625" xlink:href="#DejaVuSans-30"/>
       <use x="159.033203125" xlink:href="#DejaVuSans-38"/>
      </g>
     </g>
    </g>
    <g id="ytick_6">
     <g id="line2d_34">
      <g>
       <use style="stroke:#000000;stroke-width:0.5;" x="100.54125" xlink:href="#m728421d6d4" y="88.14"/>
      </g>
     </g>
     <g id="line2d_35">
      <g>
       <use style="stroke:#000000;stroke-width:0.5;" x="552.24" xlink:href="#mcb0005524f" y="88.14"/>
      </g>
     </g>
     <g id="text_14">
      <!-- 0.10 -->
      <g transform="translate(50.4684375 94.210625)scale(0.22 -0.22)">
       <use xlink:href="#DejaVuSans-30"/>
       <use x="63.623046875" xlink:href="#DejaVuSans-2e"/>
       <use x="95.41015625" xlink:href="#DejaVuSans-31"/>
       <use x="159.033203125" xlink:href="#DejaVuSans-30"/>
      </g>
     </g>
    </g>
    <g id="ytick_7">
     <g id="line2d_36">
      <g>
       <use style="stroke:#000000;stroke-width:0.5;" x="100.54125" xlink:href="#m728421d6d4" y="34.56"/>
      </g>
     </g>
     <g id="line2d_37">
      <g>
       <use style="stroke:#000000;stroke-width:0.5;" x="552.24" xlink:href="#mcb0005524f" y="34.56"/>
      </g>
     </g>
     <g id="text_15">
      <!-- 0.12 -->
      <g transform="translate(51.2109375 40.630625)scale(0.22 -0.22)">
       <use xlink:href="#DejaVuSans-30"/>
       <use x="63.623046875" xlink:href="#DejaVuSans-2e"/>
       <use x="95.41015625" xlink:href="#DejaVuSans-31"/>
       <use x="159.033203125" xlink:href="#DejaVuSans-32"/>
      </g>
     </g>
    </g>
    <g id="text_16">
     <!-- Pressure (atm) -->
     <defs>
      <path d="
M8.5 21.5781
L8.5 54.6875
L17.4844 54.6875
L17.4844 21.9219
Q17.4844 14.1562 20.5 10.2656
Q23.5312 6.39062 29.5938 6.39062
Q36.8594 6.39062 41.0781 11.0312
Q45.3125 15.6719 45.3125 23.6875
L45.3125 54.6875
L54.2969 54.6875
L54.2969 0
L45.3125 0
L45.3125 8.40625
Q42.0469 3.42188 37.7188 1
Q33.4062 -1.42188 27.6875 -1.42188
Q18.2656 -1.42188 13.375 4.4375
Q8.5 10.2969 8.5 21.5781
M31.1094 56
z
" id="DejaVuSans-75"/>
      <path d="
M19.6719 64.7969
L19.6719 37.4062
L32.0781 37.4062
Q38.9688 37.4062 42.7188 40.9688
Q46.4844 44.5312 46.4844 51.125
Q46.4844 57.6719 42.7188 61.2344
Q38.9688 64.7969 32.0781 64.7969
z

M9.8125 72.9062
L32.0781 72.9062
Q44.3438 72.9062 50.6094 67.3594
Q56.8906 61.8125 56.8906 51.125
Q56.8906 40.3281 50.6094 34.8125
Q44.3438 29.2969 32.0781 29.2969
L19.6719 29.2969
L19.6719 0
L9.8125 0
z
" id="DejaVuSans-50"/>
      <path d="
M34.2812 27.4844
Q23.3906 27.4844 19.1875 25
Q14.9844 22.5156 14.9844 16.5
Q14.9844 11.7188 18.1406 8.90625
Q21.2969 6.10938 26.7031 6.10938
Q34.1875 6.10938 38.7031 11.4062
Q43.2188 16.7031 43.2188 25.4844
L43.2188 27.4844
z

M52.2031 31.2031
L52.2031 0
L43.2188 0
L43.2188 8.29688
Q40.1406 3.32812 35.5469 0.953125
Q30.9531 -1.42188 24.3125 -1.42188
Q15.9219 -1.42188 10.9531 3.29688
Q6 8.01562 6 15.9219
Q6 25.1406 12.1719 29.8281
Q18.3594 34.5156 30.6094 34.5156
L43.2188 34.5156
L43.2188 35.4062
Q43.2188 41.6094 39.1406 45
Q35.0625 48.3906 27.6875 48.3906
Q23 48.3906 18.5469 47.2656
Q14.1094 46.1406 10.0156 43.8906
L10.0156 52.2031
Q14.9375 54.1094 19.5781 55.0469
Q24.2188 56 28.6094 56
Q40.4844 56 46.3438 49.8438
Q52.2031 43.7031 52.2031 31.2031" id="DejaVuSans-61"/>
      <path d="
M44.2812 53.0781
L44.2812 44.5781
Q40.4844 46.5312 36.375 47.5
Q32.2812 48.4844 27.875 48.4844
Q21.1875 48.4844 17.8438 46.4375
Q14.5 44.3906 14.5 40.2812
Q14.5 37.1562 16.8906 35.375
Q19.2812 33.5938 26.5156 31.9844
L29.5938 31.2969
Q39.1562 29.25 43.1875 25.5156
Q47.2188 21.7812 47.2188 15.0938
Q47.2188 7.46875 41.1875 3.01562
Q35.1562 -1.42188 24.6094 -1.42188
Q20.2188 -1.42188 15.4531 -0.5625
Q10.6875 0.296875 5.42188 2
L5.42188 11.2812
Q10.4062 8.6875 15.2344 7.39062
Q20.0625 6.10938 24.8125 6.10938
Q31.1562 6.10938 34.5625 8.28125
Q37.9844 10.4531 37.9844 14.4062
Q37.9844 18.0625 35.5156 20.0156
Q33.0625 21.9688 24.7031 23.7812
L21.5781 24.5156
Q13.2344 26.2656 9.51562 29.9062
Q5.8125 33.5469 5.8125 39.8906
Q5.8125 47.6094 11.2812 51.7969
Q16.75 56 26.8125 56
Q31.7812 56 36.1719 55.2656
Q40.5781 54.5469 44.2812 53.0781" id="DejaVuSans-73"/>
      <path d="
M41.1094 46.2969
Q39.5938 47.1719 37.8125 47.5781
Q36.0312 48 33.8906 48
Q26.2656 48 22.1875 43.0469
Q18.1094 38.0938 18.1094 28.8125
L18.1094 0
L9.07812 0
L9.07812 54.6875
L18.1094 54.6875
L18.1094 46.1875
Q20.9531 51.1719 25.4844 53.5781
Q30.0312 56 36.5312 56
Q37.4531 56 38.5781 55.875
Q39.7031 55.7656 41.0625 55.5156
z
" id="DejaVuSans-72"/>
     </defs>
     <g transform="translate(40.66625 275.16)rotate(-90.0)scale(0.22 -0.22)">
      <use xlink:href="#DejaVuSans-50"/>
      <use x="58.552734375" xlink:href="#DejaVuSans-72"/>
      <use x="97.416015625" xlink:href="#DejaVuSans-65"/>
      <use x="158.939453125" xlink:href="#DejaVuSans-73"/>
      <use x="211.0390625" xlink:href="#DejaVuSans-73"/>
      <use x="263.138671875" xlink:href="#DejaVuSans-75"/>
      <use x="326.517578125" xlink:href="#DejaVuSans-72"/>
      <use x="365.380859375" xlink:href="#DejaVuSans-65"/>
      <use x="426.904296875" xlink:href="#DejaVuSans-20"/>
      <use x="458.69140625" xlink:href="#DejaVuSans-28"/>
      <use x="497.705078125" xlink:href="#DejaVuSans-61"/>
      <use x="558.984375" xlink:href="#DejaVuSans-74"/>
      <use x="598.193359375" xlink:href="#DejaVuSans-6d"/>
      <use x="695.60546875" xlink:href="#DejaVuSans-29"/>
     </g>
    </g>
   </g>
   <g id="patch_3">
    <path d="
M100.541 34.56
L552.24 34.56" style="fill:none;stroke:#000000;"/>
   </g>
   <g id="patch_4">
    <path d="
M552.24 356.04
L552.24 34.56" style="fill:none;stroke:#000000;"/>
   </g>
   <g id="patch_5">
    <path d="
M100.541 356.04
L552.24 356.04" style="fill:none;stroke:#000000;"/>
   </g>
   <g id="patch_6">
    <path d="
M100.541 356.04
L100.541 34.56" style="fill:none;stroke:#000000;"/>
   </g>
  </g>
 </g>
 <defs>
  <clipPath id="p014b2c756e">
   <rect height="321.48" width="451.69875" x="100.54125" y="34.56"/>
  </clipPath>
 </defs>
</svg>
