<?xml version="1.0" encoding="utf-8" standalone="no"?>
<!DOCTYPE svg PUBLIC "-//W3C//DTD SVG 1.1//EN"
  "http://www.w3.org/Graphics/SVG/1.1/DTD/svg11.dtd">
<!-- Created with matplotlib (http://matplotlib.org/) -->
<svg height="432pt" version="1.1" viewBox="0 0 576 432" width="576pt" xmlns="http://www.w3.org/2000/svg" xmlns:xlink="http://www.w3.org/1999/xlink">
 <defs>
  <style type="text/css">
*{stroke-linecap:butt;stroke-linejoin:round;}
  </style>
 </defs>
 <g id="figure_1">
  <g id="patch_1">
   <path d="
M0 432
L576 432
L576 0
L0 0
z
" style="fill:#ffffff;"/>
  </g>
  <g id="axes_1">
   <g id="patch_2">
    <path d="
M100.26 356.04
L552.24 356.04
L552.24 34.56
L100.26 34.56
z
" style="fill:#ffffff;"/>
   </g>
   <g id="line2d_1">
    <path clip-path="url(#pa2958d49b6)" d="
M100.26 356.04
L101.999 352.756
L105.318 346.94
L109.568 339.949
L114.565 332.164
L120.194 323.811
L126.366 315.052
L133.009 306.014
L140.034 296.832
L147.352 287.634
L154.874 278.535
L162.513 269.643
L170.194 261.041
L177.832 252.82
L185.354 245.048
L192.732 237.741
L199.924 230.93
L206.902 224.624
L213.654 218.819
L220.182 213.498
L226.472 208.654
L232.54 204.258
L238.388 200.294
L244.03 196.735
L249.47 193.564
L254.721 190.757
L259.798 188.293
L264.717 186.151
L269.478 184.318
L274.095 182.777
L278.584 181.51
L282.957 180.506
L287.229 179.751
L291.412 179.237
L295.507 178.957
L299.527 178.904
L303.497 179.074
L307.417 179.464
L311.299 180.074
L315.155 180.906
L318.997 181.962
L322.835 183.25
L326.681 184.775
L330.545 186.549
L334.437 188.581
L338.378 190.891
L342.39 193.502
L346.481 196.432
L350.67 199.709
L354.986 203.37
L359.469 207.467
L364.177 212.076
L369.177 217.287
L374.595 223.262
L380.704 230.34
L381.407 231.16
L381.448 231.077
L385.384 223.43
L389.059 216.764
L392.489 210.995
L395.677 206.057
L398.647 201.857
L401.423 198.309
L404.008 195.357
L406.425 192.927
L408.687 190.961
L410.806 189.408
L412.804 188.213
L414.691 187.339
L416.489 186.748
L418.209 186.414
L419.868 186.316
L421.487 186.442
L423.083 186.788
L424.675 187.363
L426.279 188.181
L427.902 189.264
L429.553 190.636
L431.246 192.337
L432.997 194.418
L434.802 196.916
L436.676 199.897
L438.622 203.418
L440.659 207.577
L442.792 212.447
L445.043 218.156
L445.548 219.515
L445.594 219.344
L448.207 209.708
L450.451 202.247
L452.378 196.576
L454.045 192.332
L455.483 189.25
L456.716 187.103
L456.83 186.744
L460.036 148.925
L463.189 109.078
L466.286 67.076
L467.565 48.8409
L467.565 48.8409" style="fill:none;stroke:#ff0000;stroke-linecap:square;stroke-width:2.5;"/>
   </g>
   <g id="matplotlib.axis_1">
    <g id="xtick_1">
     <g id="line2d_2">
      <defs>
       <path d="
M0 0
L0 -4" id="m93b0483c22" style="stroke:#000000;stroke-width:0.5;"/>
      </defs>
      <g>
       <use style="stroke:#000000;stroke-width:0.5;" x="100.26" xlink:href="#m93b0483c22" y="356.04"/>
      </g>
     </g>
     <g id="line2d_3">
      <defs>
       <path d="
M0 0
L0 4" id="m741efc42ff" style="stroke:#000000;stroke-width:0.5;"/>
      </defs>
      <g>
       <use style="stroke:#000000;stroke-width:0.5;" x="100.26" xlink:href="#m741efc42ff" y="34.56"/>
      </g>
     </g>
     <g id="text_1">
      <!-- 0 -->
      <defs>
       <path d="
M31.7812 66.4062
Q24.1719 66.4062 20.3281 58.9062
Q16.5 51.4219 16.5 36.375
Q16.5 21.3906 20.3281 13.8906
Q24.1719 6.39062 31.7812 6.39062
Q39.4531 6.39062 43.2812 13.8906
Q47.125 21.3906 47.125 36.375
Q47.125 51.4219 43.2812 58.9062
Q39.4531 66.4062 31.7812 66.4062
M31.7812 74.2188
Q44.0469 74.2188 50.5156 64.5156
Q56.9844 54.8281 56.9844 36.375
Q56.9844 17.9688 50.5156 8.26562
Q44.0469 -1.42188 31.7812 -1.42188
Q19.5312 -1.42188 13.0625 8.26562
Q6.59375 17.9688 6.59375 36.375
Q6.59375 54.8281 13.0625 64.5156
Q19.5312 74.2188 31.7812 74.2188" id="DejaVuSans-30"/>
      </defs>
      <g transform="translate(94.71703125 376.7565625)scale(0.22 -0.22)">
       <use xlink:href="#DejaVuSans-30"/>
      </g>
     </g>
    </g>
    <g id="xtick_2">
     <g id="line2d_4">
      <g>
       <use style="stroke:#000000;stroke-width:0.5;" x="170.881875" xlink:href="#m93b0483c22" y="356.04"/>
      </g>
     </g>
     <g id="line2d_5">
      <g>
       <use style="stroke:#000000;stroke-width:0.5;" x="170.881875" xlink:href="#m741efc42ff" y="34.56"/>
      </g>
     </g>
     <g id="text_2">
      <!-- 5 -->
      <defs>
       <path d="
M10.7969 72.9062
L49.5156 72.9062
L49.5156 64.5938
L19.8281 64.5938
L19.8281 46.7344
Q21.9688 47.4688 24.1094 47.8281
Q26.2656 48.1875 28.4219 48.1875
Q40.625 48.1875 47.75 41.5
Q54.8906 34.8125 54.8906 23.3906
Q54.8906 11.625 47.5625 5.09375
Q40.2344 -1.42188 26.9062 -1.42188
Q22.3125 -1.42188 17.5469 -0.640625
Q12.7969 0.140625 7.71875 1.70312
L7.71875 11.625
Q12.1094 9.23438 16.7969 8.0625
Q21.4844 6.89062 26.7031 6.89062
Q35.1562 6.89062 40.0781 11.3281
Q45.0156 15.7656 45.0156 23.3906
Q45.0156 31 40.0781 35.4375
Q35.1562 39.8906 26.7031 39.8906
Q22.75 39.8906 18.8125 39.0156
Q14.8906 38.1406 10.7969 36.2812
z
" id="DejaVuSans-35"/>
      </defs>
      <g transform="translate(165.69296875 376.7565625)scale(0.22 -0.22)">
       <use xlink:href="#DejaVuSans-35"/>
      </g>
     </g>
    </g>
    <g id="xtick_3">
     <g id="line2d_6">
      <g>
       <use style="stroke:#000000;stroke-width:0.5;" x="241.50375" xlink:href="#m93b0483c22" y="356.04"/>
      </g>
     </g>
     <g id="line2d_7">
      <g>
       <use style="stroke:#000000;stroke-width:0.5;" x="241.50375" xlink:href="#m741efc42ff" y="34.56"/>
      </g>
     </g>
     <g id="text_3">
      <!-- 10 -->
      <defs>
       <path d="
M12.4062 8.29688
L28.5156 8.29688
L28.5156 63.9219
L10.9844 60.4062
L10.9844 69.3906
L28.4219 72.9062
L38.2812 72.9062
L38.2812 8.29688
L54.3906 8.29688
L54.3906 0
L12.4062 0
z
" id="DejaVuSans-31"/>
      </defs>
      <g transform="translate(229.445 376.7565625)scale(0.22 -0.22)">
       <use xlink:href="#DejaVuSans-31"/>
       <use x="63.623046875" xlink:href="#DejaVuSans-30"/>
      </g>
     </g>
    </g>
    <g id="xtick_4">
     <g id="line2d_8">
      <g>
       <use style="stroke:#000000;stroke-width:0.5;" x="312.125625" xlink:href="#m93b0483c22" y="356.04"/>
      </g>
     </g>
     <g id="line2d_9">
      <g>
       <use style="stroke:#000000;stroke-width:0.5;" x="312.125625" xlink:href="#m741efc42ff" y="34.56"/>
      </g>
     </g>
     <g id="text_4">
      <!-- 15 -->
      <g transform="translate(300.2971875 376.7565625)scale(0.22 -0.22)">
       <use xlink:href="#DejaVuSans-31"/>
       <use x="63.623046875" xlink:href="#DejaVuSans-35"/>
      </g>
     </g>
    </g>
    <g id="xtick_5">
     <g id="line2d_10">
      <g>
       <use style="stroke:#000000;stroke-width:0.5;" x="382.7475" xlink:href="#m93b0483c22" y="356.04"/>
      </g>
     </g>
     <g id="line2d_11">
      <g>
       <use style="stroke:#000000;stroke-width:0.5;" x="382.7475" xlink:href="#m741efc42ff" y="34.56"/>
      </g>
     </g>
     <g id="text_5">
      <!-- 20 -->
      <defs>
       <path d="
M19.1875 8.29688
L53.6094 8.29688
L53.6094 0
L7.32812 0
L7.32812 8.29688
Q12.9375 14.1094 22.625 23.8906
Q32.3281 33.6875 34.8125 36.5312
Q39.5469 41.8438 41.4219 45.5312
Q43.3125 49.2188 43.3125 52.7812
Q43.3125 58.5938 39.2344 62.25
Q35.1562 65.9219 28.6094 65.9219
Q23.9688 65.9219 18.8125 64.3125
Q13.6719 62.7031 7.8125 59.4219
L7.8125 69.3906
Q13.7656 71.7812 18.9375 73
Q24.125 74.2188 28.4219 74.2188
Q39.75 74.2188 46.4844 68.5469
Q53.2188 62.8906 53.2188 53.4219
Q53.2188 48.9219 51.5312 44.8906
Q49.8594 40.875 45.4062 35.4062
Q44.1875 33.9844 37.6406 27.2188
Q31.1094 20.4531 19.1875 8.29688" id="DejaVuSans-32"/>
      </defs>
      <g transform="translate(370.2865625 376.7565625)scale(0.22 -0.22)">
       <use xlink:href="#DejaVuSans-32"/>
       <use x="63.623046875" xlink:href="#DejaVuSans-30"/>
      </g>
     </g>
    </g>
    <g id="xtick_6">
     <g id="line2d_12">
      <g>
       <use style="stroke:#000000;stroke-width:0.5;" x="453.369375" xlink:href="#m93b0483c22" y="356.04"/>
      </g>
     </g>
     <g id="line2d_13">
      <g>
       <use style="stroke:#000000;stroke-width:0.5;" x="453.369375" xlink:href="#m741efc42ff" y="34.56"/>
      </g>
     </g>
     <g id="text_6">
      <!-- 25 -->
      <g transform="translate(441.13875 376.7565625)scale(0.22 -0.22)">
       <use xlink:href="#DejaVuSans-32"/>
       <use x="63.623046875" xlink:href="#DejaVuSans-35"/>
      </g>
     </g>
    </g>
    <g id="xtick_7">
     <g id="line2d_14">
      <g>
       <use style="stroke:#000000;stroke-width:0.5;" x="523.99125" xlink:href="#m93b0483c22" y="356.04"/>
      </g>
     </g>
     <g id="line2d_15">
      <g>
       <use style="stroke:#000000;stroke-width:0.5;" x="523.99125" xlink:href="#m741efc42ff" y="34.56"/>
      </g>
     </g>
     <g id="text_7">
      <!-- 30 -->
      <defs>
       <path d="
M40.5781 39.3125
Q47.6562 37.7969 51.625 33
Q55.6094 28.2188 55.6094 21.1875
Q55.6094 10.4062 48.1875 4.48438
Q40.7656 -1.42188 27.0938 -1.42188
Q22.5156 -1.42188 17.6562 -0.515625
Q12.7969 0.390625 7.625 2.20312
L7.625 11.7188
Q11.7188 9.32812 16.5938 8.10938
Q21.4844 6.89062 26.8125 6.89062
Q36.0781 6.89062 40.9375 10.5469
Q45.7969 14.2031 45.7969 21.1875
Q45.7969 27.6406 41.2812 31.2656
Q36.7656 34.9062 28.7188 34.9062
L20.2188 34.9062
L20.2188 43.0156
L29.1094 43.0156
Q36.375 43.0156 40.2344 45.9219
Q44.0938 48.8281 44.0938 54.2969
Q44.0938 59.9062 40.1094 62.9062
Q36.1406 65.9219 28.7188 65.9219
Q24.6562 65.9219 20.0156 65.0312
Q15.375 64.1562 9.8125 62.3125
L9.8125 71.0938
Q15.4375 72.6562 20.3438 73.4375
Q25.25 74.2188 29.5938 74.2188
Q40.8281 74.2188 47.3594 69.1094
Q53.9062 64.0156 53.9062 55.3281
Q53.9062 49.2656 50.4375 45.0938
Q46.9688 40.9219 40.5781 39.3125" id="DejaVuSans-33"/>
      </defs>
      <g transform="translate(511.56296875 376.7565625)scale(0.22 -0.22)">
       <use xlink:href="#DejaVuSans-33"/>
       <use x="63.623046875" xlink:href="#DejaVuSans-30"/>
      </g>
     </g>
    </g>
    <g id="text_8">
     <!-- Depth (cm) -->
     <defs>
      <path d="
M8.01562 75.875
L15.8281 75.875
Q23.1406 64.3594 26.7812 53.3125
Q30.4219 42.2812 30.4219 31.3906
Q30.4219 20.4531 26.7812 9.375
Q23.1406 -1.70312 15.8281 -13.1875
L8.01562 -13.1875
Q14.5 -2 17.7031 9.0625
Q20.9062 20.125 20.9062 31.3906
Q20.9062 42.6719 17.7031 53.6562
Q14.5 64.6562 8.01562 75.875" id="DejaVuSans-29"/>
      <path d="
M52 44.1875
Q55.375 50.25 60.0625 53.125
Q64.75 56 71.0938 56
Q79.6406 56 84.2812 50.0156
Q88.9219 44.0469 88.9219 33.0156
L88.9219 0
L79.8906 0
L79.8906 32.7188
Q79.8906 40.5781 77.0938 44.375
Q74.3125 48.1875 68.6094 48.1875
Q61.625 48.1875 57.5625 43.5469
Q53.5156 38.9219 53.5156 30.9062
L53.5156 0
L44.4844 0
L44.4844 32.7188
Q44.4844 40.625 41.7031 44.4062
Q38.9219 48.1875 33.1094 48.1875
Q26.2188 48.1875 22.1562 43.5312
Q18.1094 38.875 18.1094 30.9062
L18.1094 0
L9.07812 0
L9.07812 54.6875
L18.1094 54.6875
L18.1094 46.1875
Q21.1875 51.2188 25.4844 53.6094
Q29.7812 56 35.6875 56
Q41.6562 56 45.8281 52.9688
Q50 49.9531 52 44.1875" id="DejaVuSans-6d"/>
      <path d="
M48.7812 52.5938
L48.7812 44.1875
Q44.9688 46.2969 41.1406 47.3438
Q37.3125 48.3906 33.4062 48.3906
Q24.6562 48.3906 19.8125 42.8438
Q14.9844 37.3125 14.9844 27.2969
Q14.9844 17.2812 19.8125 11.7344
Q24.6562 6.20312 33.4062 6.20312
Q37.3125 6.20312 41.1406 7.25
Q44.9688 8.29688 48.7812 10.4062
L48.7812 2.09375
Q45.0156 0.34375 40.9844 -0.53125
Q36.9688 -1.42188 32.4219 -1.42188
Q20.0625 -1.42188 12.7812 6.34375
Q5.51562 14.1094 5.51562 27.2969
Q5.51562 40.6719 12.8594 48.3281
Q20.2188 56 33.0156 56
Q37.1562 56 41.1094 55.1406
Q45.0625 54.2969 48.7812 52.5938" id="DejaVuSans-63"/>
      <path d="
M19.6719 64.7969
L19.6719 8.10938
L31.5938 8.10938
Q46.6875 8.10938 53.6875 14.9375
Q60.6875 21.7812 60.6875 36.5312
Q60.6875 51.1719 53.6875 57.9844
Q46.6875 64.7969 31.5938 64.7969
z

M9.8125 72.9062
L30.0781 72.9062
Q51.2656 72.9062 61.1719 64.0938
Q71.0938 55.2812 71.0938 36.5312
Q71.0938 17.6719 61.125 8.82812
Q51.1719 0 30.0781 0
L9.8125 0
z
" id="DejaVuSans-44"/>
      <path id="DejaVuSans-20"/>
      <path d="
M54.8906 33.0156
L54.8906 0
L45.9062 0
L45.9062 32.7188
Q45.9062 40.4844 42.875 44.3281
Q39.8438 48.1875 33.7969 48.1875
Q26.5156 48.1875 22.3125 43.5469
Q18.1094 38.9219 18.1094 30.9062
L18.1094 0
L9.07812 0
L9.07812 75.9844
L18.1094 75.9844
L18.1094 46.1875
Q21.3438 51.125 25.7031 53.5625
Q30.0781 56 35.7969 56
Q45.2188 56 50.0469 50.1719
Q54.8906 44.3438 54.8906 33.0156" id="DejaVuSans-68"/>
      <path d="
M18.3125 70.2188
L18.3125 54.6875
L36.8125 54.6875
L36.8125 47.7031
L18.3125 47.7031
L18.3125 18.0156
Q18.3125 11.3281 20.1406 9.42188
Q21.9688 7.51562 27.5938 7.51562
L36.8125 7.51562
L36.8125 0
L27.5938 0
Q17.1875 0 13.2344 3.875
Q9.28125 7.76562 9.28125 18.0156
L9.28125 47.7031
L2.6875 47.7031
L2.6875 54.6875
L9.28125 54.6875
L9.28125 70.2188
z
" id="DejaVuSans-74"/>
      <path d="
M31 75.875
Q24.4688 64.6562 21.2812 53.6562
Q18.1094 42.6719 18.1094 31.3906
Q18.1094 20.125 21.3125 9.0625
Q24.5156 -2 31 -13.1875
L23.1875 -13.1875
Q15.875 -1.70312 12.2344 9.375
Q8.59375 20.4531 8.59375 31.3906
Q8.59375 42.2812 12.2031 53.3125
Q15.8281 64.3594 23.1875 75.875
z
" id="DejaVuSans-28"/>
      <path d="
M56.2031 29.5938
L56.2031 25.2031
L14.8906 25.2031
Q15.4844 15.9219 20.4844 11.0625
Q25.4844 6.20312 34.4219 6.20312
Q39.5938 6.20312 44.4531 7.46875
Q49.3125 8.73438 54.1094 11.2812
L54.1094 2.78125
Q49.2656 0.734375 44.1875 -0.34375
Q39.1094 -1.42188 33.8906 -1.42188
Q20.7969 -1.42188 13.1562 6.1875
Q5.51562 13.8125 5.51562 26.8125
Q5.51562 40.2344 12.7656 48.1094
Q20.0156 56 32.3281 56
Q43.3594 56 49.7812 48.8906
Q56.2031 41.7969 56.2031 29.5938
M47.2188 32.2344
Q47.125 39.5938 43.0938 43.9844
Q39.0625 48.3906 32.4219 48.3906
Q24.9062 48.3906 20.3906 44.1406
Q15.875 39.8906 15.1875 32.1719
z
" id="DejaVuSans-65"/>
      <path d="
M18.1094 8.20312
L18.1094 -20.7969
L9.07812 -20.7969
L9.07812 54.6875
L18.1094 54.6875
L18.1094 46.3906
Q20.9531 51.2656 25.2656 53.625
Q29.5938 56 35.5938 56
Q45.5625 56 51.7812 48.0938
Q58.0156 40.1875 58.0156 27.2969
Q58.0156 14.4062 51.7812 6.48438
Q45.5625 -1.42188 35.5938 -1.42188
Q29.5938 -1.42188 25.2656 0.953125
Q20.9531 3.32812 18.1094 8.20312
M48.6875 27.2969
Q48.6875 37.2031 44.6094 42.8438
Q40.5312 48.4844 33.4062 48.4844
Q26.2656 48.4844 22.1875 42.8438
Q18.1094 37.2031 18.1094 27.2969
Q18.1094 17.3906 22.1875 11.75
Q26.2656 6.10938 33.4062 6.10938
Q40.5312 6.10938 44.6094 11.75
Q48.6875 17.3906 48.6875 27.2969" id="DejaVuSans-70"/>
     </defs>
     <g transform="translate(264.84765625 403.0484375)scale(0.22 -0.22)">
      <use xlink:href="#DejaVuSans-44"/>
      <use x="77.001953125" xlink:href="#DejaVuSans-65"/>
      <use x="138.525390625" xlink:href="#DejaVuSans-70"/>
      <use x="202.001953125" xlink:href="#DejaVuSans-74"/>
      <use x="241.2109375" xlink:href="#DejaVuSans-68"/>
      <use x="304.58984375" xlink:href="#DejaVuSans-20"/>
      <use x="336.376953125" xlink:href="#DejaVuSans-28"/>
      <use x="375.390625" xlink:href="#DejaVuSans-63"/>
      <use x="430.37109375" xlink:href="#DejaVuSans-6d"/>
      <use x="527.783203125" xlink:href="#DejaVuSans-29"/>
     </g>
    </g>
   </g>
   <g id="matplotlib.axis_2">
    <g id="ytick_1">
     <g id="line2d_16">
      <defs>
       <path d="
M0 0
L4 0" id="m728421d6d4" style="stroke:#000000;stroke-width:0.5;"/>
      </defs>
      <g>
       <use style="stroke:#000000;stroke-width:0.5;" x="100.26" xlink:href="#m728421d6d4" y="356.04"/>
      </g>
     </g>
     <g id="line2d_17">
      <defs>
       <path d="
M0 0
L-4 0" id="mcb0005524f" style="stroke:#000000;stroke-width:0.5;"/>
      </defs>
      <g>
       <use style="stroke:#000000;stroke-width:0.5;" x="552.24" xlink:href="#mcb0005524f" y="356.04"/>
      </g>
     </g>
     <g id="text_9">
      <!-- 0.00 -->
      <defs>
       <path d="
M10.6875 12.4062
L21 12.4062
L21 0
L10.6875 0
z
" id="DejaVuSans-2e"/>
      </defs>
      <g transform="translate(50.1871875 362.110625)scale(0.22 -0.22)">
       <use xlink:href="#DejaVuSans-30"/>
       <use x="63.623046875" xlink:href="#DejaVuSans-2e"/>
       <use x="95.41015625" xlink:href="#DejaVuSans-30"/>
       <use x="159.033203125" xlink:href="#DejaVuSans-30"/>
      </g>
     </g>
    </g>
    <g id="ytick_2">
     <g id="line2d_18">
      <g>
       <use style="stroke:#000000;stroke-width:0.5;" x="100.26" xlink:href="#m728421d6d4" y="310.114285714"/>
      </g>
     </g>
     <g id="line2d_19">
      <g>
       <use style="stroke:#000000;stroke-width:0.5;" x="552.24" xlink:href="#mcb0005524f" y="310.114285714"/>
      </g>
     </g>
     <g id="text_10">
      <!-- 0.05 -->
      <g transform="translate(50.6478125 316.184910714)scale(0.22 -0.22)">
       <use xlink:href="#DejaVuSans-30"/>
       <use x="63.623046875" xlink:href="#DejaVuSans-2e"/>
       <use x="95.41015625" xlink:href="#DejaVuSans-30"/>
       <use x="159.033203125" xlink:href="#DejaVuSans-35"/>
      </g>
     </g>
    </g>
    <g id="ytick_3">
     <g id="line2d_20">
      <g>
       <use style="stroke:#000000;stroke-width:0.5;" x="100.26" xlink:href="#m728421d6d4" y="264.188571429"/>
      </g>
     </g>
     <g id="line2d_21">
      <g>
       <use style="stroke:#000000;stroke-width:0.5;" x="552.24" xlink:href="#mcb0005524f" y="264.188571429"/>
      </g>
     </g>
     <g id="text_11">
      <!-- 0.10 -->
      <g transform="translate(50.1871875 270.259196429)scale(0.22 -0.22)">
       <use xlink:href="#DejaVuSans-30"/>
       <use x="63.623046875" xlink:href="#DejaVuSans-2e"/>
       <use x="95.41015625" xlink:href="#DejaVuSans-31"/>
       <use x="159.033203125" xlink:href="#DejaVuSans-30"/>
      </g>
     </g>
    </g>
    <g id="ytick_4">
     <g id="line2d_22">
      <g>
       <use style="stroke:#000000;stroke-width:0.5;" x="100.26" xlink:href="#m728421d6d4" y="218.262857143"/>
      </g>
     </g>
     <g id="line2d_23">
      <g>
       <use style="stroke:#000000;stroke-width:0.5;" x="552.24" xlink:href="#mcb0005524f" y="218.262857143"/>
      </g>
     </g>
     <g id="text_12">
      <!-- 0.15 -->
      <g transform="translate(50.6478125 224.333482143)scale(0.22 -0.22)">
       <use xlink:href="#DejaVuSans-30"/>
       <use x="63.623046875" xlink:href="#DejaVuSans-2e"/>
       <use x="95.41015625" xlink:href="#DejaVuSans-31"/>
       <use x="159.033203125" xlink:href="#DejaVuSans-35"/>
      </g>
     </g>
    </g>
    <g id="ytick_5">
     <g id="line2d_24">
      <g>
       <use style="stroke:#000000;stroke-width:0.5;" x="100.26" xlink:href="#m728421d6d4" y="172.337142857"/>
      </g>
     </g>
     <g id="line2d_25">
      <g>
       <use style="stroke:#000000;stroke-width:0.5;" x="552.24" xlink:href="#mcb0005524f" y="172.337142857"/>
      </g>
     </g>
     <g id="text_13">
      <!-- 0.20 -->
      <g transform="translate(50.1871875 178.407767857)scale(0.22 -0.22)">
       <use xlink:href="#DejaVuSans-30"/>
       <use x="63.623046875" xlink:href="#DejaVuSans-2e"/>
       <use x="95.41015625" xlink:href="#DejaVuSans-32"/>
       <use x="159.033203125" xlink:href="#DejaVuSans-30"/>
      </g>
     </g>
    </g>
    <g id="ytick_6">
     <g id="line2d_26">
      <g>
       <use style="stroke:#000000;stroke-width:0.5;" x="100.26" xlink:href="#m728421d6d4" y="126.411428571"/>
      </g>
     </g>
     <g id="line2d_27">
      <g>
       <use style="stroke:#000000;stroke-width:0.5;" x="552.24" xlink:href="#mcb0005524f" y="126.411428571"/>
      </g>
     </g>
     <g id="text_14">
      <!-- 0.25 -->
      <g transform="translate(50.6478125 132.482053571)scale(0.22 -0.22)">
       <use xlink:href="#DejaVuSans-30"/>
       <use x="63.623046875" xlink:href="#DejaVuSans-2e"/>
       <use x="95.41015625" xlink:href="#DejaVuSans-32"/>
       <use x="159.033203125" xlink:href="#DejaVuSans-35"/>
      </g>
     </g>
    </g>
    <g id="ytick_7">
     <g id="line2d_28">
      <g>
       <use style="stroke:#000000;stroke-width:0.5;" x="100.26" xlink:href="#m728421d6d4" y="80.4857142857"/>
      </g>
     </g>
     <g id="line2d_29">
      <g>
       <use style="stroke:#000000;stroke-width:0.5;" x="552.24" xlink:href="#mcb0005524f" y="80.4857142857"/>
      </g>
     </g>
     <g id="text_15">
      <!-- 0.30 -->
      <g transform="translate(50.1871875 86.5563392857)scale(0.22 -0.22)">
       <use xlink:href="#DejaVuSans-30"/>
       <use x="63.623046875" xlink:href="#DejaVuSans-2e"/>
       <use x="95.41015625" xlink:href="#DejaVuSans-33"/>
       <use x="159.033203125" xlink:href="#DejaVuSans-30"/>
      </g>
     </g>
    </g>
    <g id="ytick_8">
     <g id="line2d_30">
      <g>
       <use style="stroke:#000000;stroke-width:0.5;" x="100.26" xlink:href="#m728421d6d4" y="34.56"/>
      </g>
     </g>
     <g id="line2d_31">
      <g>
       <use style="stroke:#000000;stroke-width:0.5;" x="552.24" xlink:href="#mcb0005524f" y="34.56"/>
      </g>
     </g>
     <g id="text_16">
      <!-- 0.35 -->
      <g transform="translate(50.6478125 40.630625)scale(0.22 -0.22)">
       <use xlink:href="#DejaVuSans-30"/>
       <use x="63.623046875" xlink:href="#DejaVuSans-2e"/>
       <use x="95.41015625" xlink:href="#DejaVuSans-33"/>
       <use x="159.033203125" xlink:href="#DejaVuSans-35"/>
      </g>
     </g>
    </g>
    <g id="text_17">
     <!-- Pressure (atm) -->
     <defs>
      <path d="
M8.5 21.5781
L8.5 54.6875
L17.4844 54.6875
L17.4844 21.9219
Q17.4844 14.1562 20.5 10.2656
Q23.5312 6.39062 29.5938 6.39062
Q36.8594 6.39062 41.0781 11.0312
Q45.3125 15.6719 45.3125 23.6875
L45.3125 54.6875
L54.2969 54.6875
L54.2969 0
L45.3125 0
L45.3125 8.40625
Q42.0469 3.42188 37.7188 1
Q33.4062 -1.42188 27.6875 -1.42188
Q18.2656 -1.42188 13.375 4.4375
Q8.5 10.2969 8.5 21.5781
M31.1094 56
z
" id="DejaVuSans-75"/>
      <path d="
M19.6719 64.7969
L19.6719 37.4062
L32.0781 37.4062
Q38.9688 37.4062 42.7188 40.9688
Q46.4844 44.5312 46.4844 51.125
Q46.4844 57.6719 42.7188 61.2344
Q38.9688 64.7969 32.0781 64.7969
z

M9.8125 72.9062
L32.0781 72.9062
Q44.3438 72.9062 50.6094 67.3594
Q56.8906 61.8125 56.8906 51.125
Q56.8906 40.3281 50.6094 34.8125
Q44.3438 29.2969 32.0781 29.2969
L19.6719 29.2969
L19.6719 0
L9.8125 0
z
" id="DejaVuSans-50"/>
      <path d="
M34.2812 27.4844
Q23.3906 27.4844 19.1875 25
Q14.9844 22.5156 14.9844 16.5
Q14.9844 11.7188 18.1406 8.90625
Q21.2969 6.10938 26.7031 6.10938
Q34.1875 6.10938 38.7031 11.4062
Q43.2188 16.7031 43.2188 25.4844
L43.2188 27.4844
z

M52.2031 31.2031
L52.2031 0
L43.2188 0
L43.2188 8.29688
Q40.1406 3.32812 35.5469 0.953125
Q30.9531 -1.42188 24.3125 -1.42188
Q15.9219 -1.42188 10.9531 3.29688
Q6 8.01562 6 15.9219
Q6 25.1406 12.1719 29.8281
Q18.3594 34.5156 30.6094 34.5156
L43.2188 34.5156
L43.2188 35.4062
Q43.2188 41.6094 39.1406 45
Q35.0625 48.3906 27.6875 48.3906
Q23 48.3906 18.5469 47.2656
Q14.1094 46.1406 10.0156 43.8906
L10.0156 52.2031
Q14.9375 54.1094 19.5781 55.0469
Q24.2188 56 28.6094 56
Q40.4844 56 46.3438 49.8438
Q52.2031 43.7031 52.2031 31.2031" id="DejaVuSans-61"/>
      <path d="
M44.2812 53.0781
L44.2812 44.5781
Q40.4844 46.5312 36.375 47.5
Q32.2812 48.4844 27.875 48.4844
Q21.1875 48.4844 17.8438 46.4375
Q14.5 44.3906 14.5 40.2812
Q14.5 37.1562 16.8906 35.375
Q19.2812 33.5938 26.5156 31.9844
L29.5938 31.2969
Q39.1562 29.25 43.1875 25.5156
Q47.2188 21.7812 47.2188 15.0938
Q47.2188 7.46875 41.1875 3.01562
Q35.1562 -1.42188 24.6094 -1.42188
Q20.2188 -1.42188 15.4531 -0.5625
Q10.6875 0.296875 5.42188 2
L5.42188 11.2812
Q10.4062 8.6875 15.2344 7.39062
Q20.0625 6.10938 24.8125 6.10938
Q31.1562 6.10938 34.5625 8.28125
Q37.9844 10.4531 37.9844 14.4062
Q37.9844 18.0625 35.5156 20.0156
Q33.0625 21.9688 24.7031 23.7812
L21.5781 24.5156
Q13.2344 26.2656 9.51562 29.9062
Q5.8125 33.5469 5.8125 39.8906
Q5.8125 47.6094 11.2812 51.7969
Q16.75 56 26.8125 56
Q31.7812 56 36.1719 55.2656
Q40.5781 54.5469 44.2812 53.0781" id="DejaVuSans-73"/>
      <path d="
M41.1094 46.2969
Q39.5938 47.1719 37.8125 47.5781
Q36.0312 48 33.8906 48
Q26.2656 48 22.1875 43.0469
Q18.1094 38.0938 18.1094 28.8125
L18.1094 0
L9.07812 0
L9.07812 54.6875
L18.1094 54.6875
L18.1094 46.1875
Q20.9531 51.1719 25.4844 53.5781
Q30.0312 56 36.5312 56
Q37.4531 56 38.5781 55.875
Q39.7031 55.7656 41.0625 55.5156
z
" id="DejaVuSans-72"/>
     </defs>
     <g transform="translate(40.611875 275.16)rotate(-90.0)scale(0.22 -0.22)">
      <use xlink:href="#DejaVuSans-50"/>
      <use x="58.552734375" xlink:href="#DejaVuSans-72"/>
      <use x="97.416015625" xlink:href="#DejaVuSans-65"/>
      <use x="158.939453125" xlink:href="#DejaVuSans-73"/>
      <use x="211.0390625" xlink:href="#DejaVuSans-73"/>
      <use x="263.138671875" xlink:href="#DejaVuSans-75"/>
      <use x="326.517578125" xlink:href="#DejaVuSans-72"/>
      <use x="365.380859375" xlink:href="#DejaVuSans-65"/>
      <use x="426.904296875" xlink:href="#DejaVuSans-20"/>
      <use x="458.69140625" xlink:href="#DejaVuSans-28"/>
      <use x="497.705078125" xlink:href="#DejaVuSans-61"/>
      <use x="558.984375" xlink:href="#DejaVuSans-74"/>
      <use x="598.193359375" xlink:href="#DejaVuSans-6d"/>
      <use x="695.60546875" xlink:href="#DejaVuSans-29"/>
     </g>
    </g>
   </g>
   <g id="patch_3">
    <path d="
M100.26 34.56
L552.24 34.56" style="fill:none;stroke:#000000;"/>
   </g>
   <g id="patch_4">
    <path d="
M552.24 356.04
L552.24 34.56" style="fill:none;stroke:#000000;"/>
   </g>
   <g id="patch_5">
    <path d="
M100.26 356.04
L552.24 356.04" style="fill:none;stroke:#000000;"/>
   </g>
   <g id="patch_6">
    <path d="
M100.26 356.04
L100.26 34.56" style="fill:none;stroke:#000000;"/>
   </g>
   <g id="line2d_32">
    <path clip-path="url(#pa2958d49b6)" d="
M100.26 356.04
L101.876 353.006
L104.926 347.727
L108.803 341.471
L113.312 334.62
L118.353 327.369
L123.845 319.861
L129.722 312.202
L135.906 304.511
L142.343 296.86
L148.952 289.349
L155.668 282.052
L162.437 275.024
L169.207 268.315
L175.925 261.967
L182.564 255.998
L189.088 250.429
L195.469 245.272
L201.697 240.522
L207.77 236.167
L213.679 232.201
L219.422 228.611
L225.002 225.383
L230.431 222.497
L235.711 219.941
L240.841 217.702
L245.836 215.763
L250.708 214.109
L255.457 212.729
L260.097 211.611
L264.639 210.744
L269.096 210.118
L273.48 209.726
L277.801 209.561
L282.071 209.621
L286.29 209.903
L290.48 210.404
L294.652 211.128
L298.816 212.076
L302.981 213.253
L307.168 214.668
L311.387 216.329
L315.655 218.25
L319.992 220.447
L324.416 222.938
L328.964 225.757
L333.661 228.933
L338.553 232.511
L343.72 236.571
L349.271 241.22
L355.402 246.653
L362.6 253.34
L373.043 263.383
L375.543 265.788
L375.589 265.698
L379.183 258.916
L382.612 252.912
L385.859 247.665
L388.927 243.122
L391.818 239.229
L394.543 235.923
L397.114 233.148
L399.533 230.856
L401.82 228.989
L403.985 227.503
L406.039 226.36
L407.993 225.523
L409.863 224.959
L411.669 224.645
L413.427 224.564
L415.146 224.706
L416.85 225.069
L418.555 225.662
L420.276 226.498
L422.019 227.595
L423.805 228.987
L425.642 230.704
L427.54 232.789
L429.512 235.291
L431.576 238.279
L433.74 241.813
L436.029 245.984
L438.483 250.931
L441.16 256.842
L441.541 257.719
L441.582 257.569
L444.078 248.811
L446.272 241.891
L448.189 236.551
L449.858 232.529
L451.314 229.572
L452.577 227.481
L453.224 226.366
L456.492 190.59
L459.703 152.98
L462.859 113.373
L463.567 104.098
L463.567 104.098" style="fill:none;stroke:#008000;stroke-linecap:square;stroke-width:2.5;"/>
   </g>
   <g id="line2d_33">
    <path clip-path="url(#pa2958d49b6)" d="
M100.26 356.04
L101.753 353.257
L104.543 348.501
L108.057 342.959
L112.122 336.967
L116.636 330.713
L121.529 324.315
L126.742 317.866
L132.205 311.462
L137.882 305.15
L143.714 298.997
L149.652 293.055
L155.661 287.355
L161.693 281.938
L167.714 276.829
L173.699 272.041
L179.614 267.592
L185.448 263.48
L191.187 259.703
L196.833 256.253
L202.363 253.132
L207.789 250.323
L213.099 247.823
L218.305 245.616
L223.406 243.692
L228.415 242.04
L233.33 240.652
L238.163 239.516
L242.914 238.628
L247.604 237.976
L252.233 237.557
L256.81 237.364
L261.356 237.395
L265.88 237.648
L270.392 238.124
L274.899 238.823
L279.421 239.749
L283.976 240.91
L288.579 242.314
L293.249 243.972
L298.01 245.9
L302.897 248.12
L307.94 250.658
L313.207 253.56
L318.772 256.884
L324.764 260.727
L331.431 265.273
L339.374 270.972
L352.133 280.446
L364.077 289.211
L370.51 293.711
L370.518 293.695
L373.722 287.599
L376.841 282.134
L379.858 277.289
L382.758 273.045
L385.526 269.381
L388.17 266.242
L390.692 263.586
L393.094 261.375
L395.377 259.569
L397.559 258.122
L399.647 257
L401.651 256.171
L403.587 255.609
L405.47 255.291
L407.316 255.205
L409.131 255.342
L410.944 255.703
L412.761 256.292
L414.603 257.125
L416.482 258.221
L418.416 259.611
L420.416 261.325
L422.506 263.416
L424.7 265.932
L427.026 268.945
L429.527 272.559
L432.268 276.922
L435.394 282.332
L438.204 287.481
L438.264 287.265
L440.602 279.233
L442.711 272.754
L444.591 267.666
L446.257 263.777
L447.72 260.899
L449.004 258.838
L450.128 257.432
L450.222 257.208
L453.542 222.983
L456.808 187.003
L460.017 149.157
L460.045 148.816
L460.045 148.816" style="fill:none;stroke:#0000ff;stroke-linecap:square;stroke-width:2.5;"/>
   </g>
   <g id="line2d_34">
    <path clip-path="url(#pa2958d49b6)" d="
M100.26 356.04
L101.625 353.516
L104.146 349.299
L107.3 344.462
L110.926 339.31
L114.934 334.003
L119.265 328.639
L123.866 323.295
L128.695 318.026
L133.702 312.892
L138.854 307.928
L144.119 303.163
L149.456 298.632
L154.842 294.349
L160.248 290.335
L165.652 286.597
L171.042 283.138
L176.398 279.965
L181.709 277.074
L186.965 274.466
L192.165 272.131
L197.309 270.064
L202.397 268.259
L207.426 266.708
L212.407 265.404
L217.339 264.341
L222.23 263.514
L227.09 262.917
L231.925 262.546
L236.745 262.4
L241.566 262.475
L246.396 262.773
L251.25 263.295
L256.153 264.046
L261.118 265.033
L266.17 266.265
L271.337 267.756
L276.658 269.524
L282.183 271.596
L287.987 274.013
L294.189 276.84
L300.988 280.189
L308.83 284.307
L319.19 290.019
L340.428 301.782
L348.652 306.038
L355.883 309.534
L362.658 312.565
L366.652 314.173
L369.413 308.803
L372.159 303.941
L374.861 299.601
L377.505 295.767
L380.076 292.425
L382.561 289.552
L384.959 287.112
L387.272 285.072
L389.501 283.397
L391.652 282.055
L393.727 281.019
L395.746 280.256
L397.716 279.747
L399.649 279.475
L401.56 279.43
L403.467 279.606
L405.387 280.008
L407.338 280.646
L409.33 281.533
L411.392 282.698
L413.538 284.171
L415.793 285.993
L418.192 288.225
L420.786 290.949
L423.665 294.305
L427.021 298.573
L431.561 304.739
L435.514 310.219
L435.55 310.088
L437.672 302.767
L439.645 296.731
L441.449 291.899
L443.075 288.158
L444.527 285.351
L445.815 283.323
L446.956 281.924
L447.79 280.901
L451.15 247.872
L454.456 213.162
L456.873 186.255
L456.873 186.255" style="fill:none;stroke:#000000;stroke-linecap:square;stroke-width:2.5;"/>
   </g>
   <g id="line2d_35">
    <path clip-path="url(#pa2958d49b6)" d="
M100.26 356.04
L101.49 353.792
L103.744 350.109
L106.548 345.958
L109.758 341.607
L113.295 337.189
L117.108 332.783
L121.152 328.449
L125.393 324.231
L129.801 320.159
L134.351 316.259
L139.014 312.554
L143.763 309.064
L148.58 305.799
L153.453 302.764
L158.357 299.97
L163.289 297.415
L168.232 295.104
L173.182 293.034
L178.14 291.201
L183.096 289.604
L188.055 288.24
L193.017 287.105
L197.988 286.196
L202.967 285.511
L207.967 285.047
L213.003 284.803
L218.079 284.78
L223.217 284.979
L228.436 285.404
L233.763 286.062
L239.223 286.962
L244.864 288.118
L250.736 289.551
L256.926 291.293
L263.557 293.393
L270.859 295.945
L279.325 299.147
L290.658 303.69
L313.613 312.938
L322.971 316.427
L331.342 319.314
L339.338 321.838
L347.283 324.112
L355.405 326.204
L363.891 328.159
L364.011 327.917
L366.333 323.373
L368.68 319.259
L371.035 315.575
L373.37 312.327
L375.674 309.496
L377.934 307.066
L380.144 305.01
L382.304 303.3
L384.413 301.909
L386.479 300.81
L388.505 299.981
L390.504 299.401
L392.486 299.057
L394.468 298.937
L396.464 299.04
L398.491 299.368
L400.572 299.932
L402.727 300.75
L404.982 301.847
L407.371 303.261
L409.947 305.049
L412.791 307.302
L416.07 310.193
L420.289 314.231
L431.619 325.225
L433.464 326.847
L433.486 326.773
L435.329 320.293
L437.106 314.836
L438.771 310.413
L440.304 306.947
L441.696 304.328
L442.946 302.427
L444.066 301.108
L445.066 300.259
L445.782 299.637
L449.177 267.527
L452.514 233.829
L453.948 218.645
L453.948 218.645" style="fill:none;stroke:#bfbf00;stroke-linecap:square;stroke-width:2.5;"/>
   </g>
   <g id="line2d_36">
    <path clip-path="url(#pa2958d49b6)" d="
M100.26 356.04
L101.348 354.079
L103.326 350.948
L105.775 347.488
L108.57 343.929
L111.644 340.375
L114.962 336.879
L118.487 333.489
L122.188 330.238
L126.05 327.14
L130.057 324.212
L134.186 321.469
L138.427 318.918
L142.772 316.564
L147.203 314.416
L151.72 312.473
L156.312 310.74
L160.978 309.217
L165.715 307.905
L170.527 306.803
L175.418 305.912
L180.392 305.231
L185.466 304.762
L190.65 304.506
L195.965 304.468
L201.44 304.652
L207.107 305.067
L213.011 305.724
L219.232 306.642
L225.869 307.849
L233.099 309.395
L241.262 311.372
L251.181 314.015
L267.705 318.69
L283.898 323.184
L294.92 326.01
L305 328.366
L314.909 330.454
L325.088 332.369
L335.883 334.172
L347.64 335.906
L360.69 337.601
L362.013 337.655
L363.919 333.944
L365.882 330.6
L367.883 327.626
L369.898 325.022
L371.913 322.776
L373.921 320.866
L375.917 319.27
L377.9 317.966
L379.873 316.931
L381.842 316.147
L383.819 315.598
L385.817 315.273
L387.849 315.169
L389.935 315.285
L392.102 315.629
L394.381 316.22
L396.807 317.082
L399.439 318.259
L402.381 319.823
L405.844 321.927
L410.545 325.067
L420.654 331.878
L424.856 334.392
L428.742 336.459
L432.051 338.014
L432.054 338
L433.584 332.547
L435.113 327.897
L436.583 324.111
L437.966 321.141
L439.241 318.906
L440.407 317.292
L441.463 316.193
L442.42 315.504
L443.296 315.136
L444.098 314.818
L447.52 283.462
L450.885 250.553
L451.177 247.598
L451.177 247.598" style="fill:none;stroke:#bf00bf;stroke-linecap:square;stroke-width:2.5;"/>
   </g>
   <g id="line2d_37">
    <path clip-path="url(#pa2958d49b6)" d="
M100.26 356.04
L101.198 354.383
L102.893 351.815
L104.983 349.056
L107.365 346.28
L109.994 343.56
L112.833 340.943
L115.866 338.45
L119.073 336.103
L122.447 333.908
L125.981 331.876
L129.672 330.01
L133.512 328.318
L137.503 326.803
L141.65 325.467
L145.954 324.315
L150.428 323.348
L155.079 322.572
L159.929 321.989
L165.001 321.605
L170.325 321.427
L175.953 321.463
L181.949 321.727
L188.421 322.237
L195.541 323.026
L203.622 324.151
L213.377 325.743
L227.581 328.311
L252.669 332.851
L266.076 335.026
L278.952 336.889
L292.287 338.591
L306.701 340.203
L322.667 341.761
L340.509 343.275
L360.416 344.736
L360.584 344.641
L362.102 341.748
L363.696 339.182
L365.343 336.943
L367.031 335.019
L368.751 333.391
L370.501 332.037
L372.279 330.938
L374.097 330.075
L375.959 329.436
L377.884 329.011
L379.892 328.796
L382.009 328.795
L384.273 329.019
L386.739 329.491
L389.491 330.25
L392.699 331.373
L396.793 333.057
L413.503 340.188
L418.361 341.862
L423.393 343.359
L428.878 344.754
L431.134 345.179
L432.36 340.861
L433.619 337.215
L434.859 334.282
L436.044 332.027
L437.157 330.367
L438.187 329.212
L439.14 328.465
L440.027 328.042
L440.869 327.882
L441.693 327.951
L442.53 328.247
L442.561 328.262
L442.573 328.163
L446.02 297.453
L448.49 274.195
L448.49 274.195" style="fill:none;stroke:#00bfbf;stroke-linecap:square;stroke-width:2.5;"/>
   </g>
   <g id="line2d_38">
    <path clip-path="url(#pa2958d49b6)" d="
M100.26 356.04
L101.04 354.706
L102.438 352.729
L104.158 350.686
L106.122 348.699
L108.305 346.808
L110.687 345.04
L113.265 343.405
L116.039 341.909
L119.017 340.558
L122.213 339.353
L125.645 338.299
L129.334 337.401
L133.31 336.665
L137.612 336.097
L142.305 335.705
L147.464 335.5
L153.219 335.499
L159.774 335.726
L167.516 336.224
L177.343 337.09
L193.016 338.727
L219.968 341.526
L237.751 343.128
L256.335 344.576
L276.866 345.947
L299.848 347.255
L325.578 348.492
L354.385 349.651
L359.529 349.732
L360.675 347.625
L361.909 345.816
L363.213 344.291
L364.584 343.027
L366.022 342
L367.542 341.188
L369.159 340.576
L370.901 340.156
L372.807 339.929
L374.937 339.903
L377.382 340.101
L380.317 340.572
L384.182 341.432
L392.068 343.477
L399.53 345.297
L406.102 346.665
L413.168 347.904
L421.128 349.069
L430.172 350.163
L430.492 350.093
L431.425 346.921
L432.41 344.329
L433.401 342.324
L434.367 340.851
L435.292 339.828
L436.174 339.172
L437.022 338.811
L437.858 338.693
L438.713 338.798
L439.625 339.14
L440.64 339.767
L441.162 340.179
L441.181 340.029
L444.651 309.889
L445.898 298.574
L445.898 298.574" style="fill:none;stroke:#ff0000;stroke-linecap:square;stroke-width:2.5;"/>
   </g>
   <g id="line2d_39">
    <path clip-path="url(#pa2958d49b6)" d="
M100.26 356.04
L100.862 355.067
L101.932 353.735
L103.257 352.442
L104.797 351.251
L106.551 350.178
L108.532 349.23
L110.777 348.405
L113.331 347.708
L116.266 347.143
L119.688 346.716
L123.767 346.439
L128.798 346.328
L135.388 346.418
L145.237 346.797
L215.787 349.94
L247.886 350.976
L284.358 351.926
L326.046 352.784
L358.776 353.269
L359.56 351.916
L360.436 350.837
L361.403 349.994
L362.48 349.349
L363.706 348.878
L365.146 348.568
L366.912 348.424
L369.229 348.472
L372.714 348.787
L397.987 351.507
L409.921 352.397
L423.723 353.197
L430.053 353.408
L430.698 351.366
L431.405 349.832
L432.136 348.754
L432.874 348.046
L433.623 347.626
L434.408 347.44
L435.27 347.468
L436.28 347.732
L437.585 348.319
L439.974 349.691
L440.017 349.716
L440.032 349.598
L443.503 320.076
L443.503 320.076" style="fill:none;stroke:#008000;stroke-linecap:square;stroke-width:2.5;"/>
   </g>
   <g id="line2d_40">
    <path clip-path="url(#pa2958d49b6)" d="
M100.26 356.04
L100.653 355.493
L101.353 354.876
L102.272 354.368
L103.465 353.972
L105.073 353.684
L107.421 353.508
L111.503 353.455
L124.415 353.609
L181.1 354.266
L248.381 354.815
L331.562 355.262
L358.371 355.265
L358.808 354.679
L359.356 354.314
L360.099 354.1
L361.305 354.01
L364.346 354.076
L386.922 354.719
L411.858 355.184
L429.794 355.339
L430.156 354.424
L430.58 353.916
L431.078 353.663
L431.747 353.586
L432.915 353.712
L439.415 354.657
L439.417 354.642
L441.341 338.681
L441.341 338.681" style="fill:none;stroke:#0000ff;stroke-linecap:square;stroke-width:2.5;"/>
   </g>
  </g>
 </g>
 <defs>
  <clipPath id="pa2958d49b6">
   <rect height="321.48" width="451.98" x="100.26" y="34.56"/>
  </clipPath>
 </defs>
</svg>
